<?xml version="1.0" encoding="UTF-8"?>
<svg width="225px" height="164px" viewBox="0 0 225 164" version="1.1" xmlns="http://www.w3.org/2000/svg" xmlns:xlink="http://www.w3.org/1999/xlink">
    <!-- Generator: Sketch 41.2 (35397) - http://www.bohemiancoding.com/sketch -->
    <title>hiw_meet-driver</title>
    <desc>Created with Sketch.</desc>
    <defs>
        <polygon id="path-1" points="1.35525272e-19 0.9095 1.35525272e-19 50.9095 125.3696 50.9095 125.3696 0.9095 0 0.9095"></polygon>
        <polygon id="path-3" points="0 163.904 228.957 163.904 228.957 0 0 0"></polygon>
    </defs>
    <g id="Page-1" stroke="none" stroke-width="1" fill="none" fill-rule="evenodd">
        <g id="home" transform="translate(-470.000000, -13.000000)">
            <g id="hiw_meet-driver" transform="translate(470.000000, 13.000000)">
                <g id="Group-3" transform="translate(0.000000, 107.904000)">
                    <mask id="mask-2" fill="white">
                        <use xlink:href="#path-1"></use>
                    </mask>
                    <g id="Clip-2"></g>
                    <path d="M112.9126,15.3495 C111.8326,12.1125 110.0966,9.9005 107.1816,8.7135 C107.0196,8.6295 106.9566,8.5645 106.9566,8.4875 L106.9566,8.3895 C105.9566,6.5565 100.5966,5.0545 93.5796,3.5975 C84.2956,1.7105 72.8606,0.9095 59.7986,0.9095 L59.3936,0.9095 C46.4386,0.9095 35.3196,1.7105 26.0366,3.5975 C18.9346,5.0625 14.5866,6.6695 12.9686,8.5625 C12.7896,8.6635 12.6096,8.7195 12.4336,8.8295 C9.7886,10.5035 8.1696,12.8845 7.5756,16.0135 L-0.0004,50.9095 L125.3696,50.9095 L112.9126,15.3495 Z" id="Fill-1" fill="#636466" mask="url(#mask-2)"></path>
                </g>
                <polygon id="Fill-4" fill="#404040" points="77.4048 98.3898 94.4858 111.6978 88.1588 117.1278 93.0428 121.1998 66.5028 158.2528 63.1138 158.2528"></polygon>
                <polygon id="Fill-6" fill="#404040" points="47.2856 98.3898 30.2036 111.6978 36.5316 117.1278 31.6466 121.1998 54.6416 158.2528 63.1136 158.2528"></polygon>
                <mask id="mask-4" fill="white">
                    <use xlink:href="#path-3"></use>
                </mask>
                <g id="Clip-9"></g>
                <polygon id="Fill-8" fill="#FBBD8E" mask="url(#mask-4)" points="46.957 108.813 77.957 108.813 77.957 79.813 46.957 79.813"></polygon>
                <polygon id="Fill-12" fill="#FFFFFF" mask="url(#mask-4)" points="54.9849 139.0607 58.5289 121.2527 54.3559 115.9707 62.7369 108.7417 47.1589 98.1767 42.5289 106.5157"></polygon>
                <path d="M70.7788,139.9947 C70.7788,139.1607 52.6318359,127.753418 52.6318359,127.753418 L48.5825195,111.720703 L62.6398,108.7417 L78.2188,98.1767 L82.6328,106.1267 L70.7788,139.9947 Z" id="Fill-13" fill="#FFFFFF" mask="url(#mask-4)"></path>
                <path d="M70.7788,140.1896 C70.7788,139.0606 66.8478,121.3506 66.8478,121.3506 L71.0208,116.0196 L62.6398,108.7666 L54.3558,115.9826 L58.5288,121.3566 L54.9848,139.0606 L63.1138,158.2526 L70.7788,140.1896 Z" id="Fill-10" fill="#FBCD33" mask="url(#mask-4)"></path>
                <path d="M70.7788,139.9947 C70.7788,139.1607 66.8478,121.2527 66.8478,121.2527 L71.0208,115.9707 L62.5238,108.7417 L63.1138,158.2527 L70.7788,139.9947 Z" id="Fill-11" fill="#000000" style="mix-blend-mode: overlay;" mask="url(#mask-4)"></path>
                <path d="M112.3091,61.3678 C112.3091,63.6458 111.4551,65.6438 109.7451,67.3528 C108.1411,68.9908 106.1631,69.8128 103.8121,69.8128 L102.9561,69.8128 L102.9561,62.0618 L102.9561,61.2068 L102.9561,60.5128 C102.9561,57.8788 102.7881,55.3678 102.2881,52.9818 C102.7521,52.9468 103.2901,52.9288 103.7181,52.9288 C106.0701,52.9288 108.0941,53.7648 109.6981,55.4388 C111.4081,57.0408 112.3091,59.0178 112.3091,61.3678" id="Fill-14" fill="#FBBD8E" mask="url(#mask-4)"></path>
                <path d="M112.3091,61.3678 C112.3091,63.6458 111.4551,65.6408 109.7451,67.3488 C108.1411,68.9868 106.1631,69.8058 103.8121,69.8058 L103.3311,69.8058 L103.3311,62.0618 L103.3311,61.2068 L103.3311,60.5128 C103.2601,57.8788 102.9751,55.3678 102.4761,52.9818 C102.9391,52.9468 103.3841,52.9288 103.8121,52.9288 C106.1631,52.9288 108.1411,53.7648 109.7451,55.4388 C111.4551,57.0408 112.3091,59.0178 112.3091,61.3678" id="Fill-15" fill="#000000" opacity="0.25" style="mix-blend-mode: overlay;" mask="url(#mask-4)"></path>
                <path d="M9.1138,61.3678 C9.1138,59.0178 9.9328,56.9828 11.5718,55.3808 C13.1758,53.7078 15.1528,52.8128 17.5038,52.8128 L17.9568,52.8128 L17.9568,69.8128 L17.5038,69.8128 C15.1528,69.8128 13.1758,68.9908 11.5718,67.3528 C9.9328,65.6438 9.1138,63.6458 9.1138,61.3678" id="Fill-16" fill="#FBBD8E" mask="url(#mask-4)"></path>
                <path d="M84.0923,30.1232 C85.8733,23.5712 85.4103,17.2152 82.7023,11.0552 C86.4443,12.7652 89.9713,15.0252 93.2843,17.8392 C95.8493,20.0462 98.0753,22.3962 99.9643,24.8882 C103.5273,29.6602 105.7003,34.9122 106.4843,40.6442 C106.5913,41.4282 106.6623,42.2292 106.6973,43.0482 L106.6973,56.5072 L99.9643,56.5072 L99.9643,46.0392 C99.7153,36.8172 95.9203,31.6002 88.5813,30.3902 C87.7973,30.3182 86.9603,30.2292 86.0703,30.1232 L84.0923,30.1232 Z" id="Fill-17" fill="#825722" mask="url(#mask-4)"></path>
                <path d="M84.0923,30.1232 C85.8733,23.5712 85.4103,17.2152 82.7023,11.0552 C86.4443,12.7652 89.9713,15.0252 93.2843,17.8392 C95.8493,20.0462 98.0753,22.3962 99.9643,24.8882 C103.5273,29.6602 105.7003,34.9122 106.4843,40.6442 C106.5913,41.4282 106.6623,42.2292 106.6973,43.0482 L106.6973,56.5072 L99.9643,56.5072 L99.9643,46.0392 C99.7153,36.8172 95.9203,31.6002 88.5813,30.3902 C87.7973,30.3182 86.9603,30.2292 86.0703,30.1232 L84.0923,30.1232 Z" id="Fill-18" fill="#000000" opacity="0.25" style="mix-blend-mode: overlay;" mask="url(#mask-4)"></path>
                <path d="M60.8452,52.3946 L59.6692,52.3946 L58.8152,52.3946 L58.6542,52.3946 L58.6012,52.3946 C55.0022,52.1806 51.7062,51.3266 48.7142,49.8306 C46.4342,48.6556 44.3312,47.1066 42.4082,45.1846 C41.8022,44.5796 40.8402,43.1906 39.5222,41.0176 L38.8802,40.0036 C37.9542,38.2586 37.4552,37.3156 37.3842,37.1726 C37.2412,36.8526 37.0812,36.5856 36.9042,36.3716 C36.6172,35.9086 36.2622,35.4636 35.8342,35.0366 C35.7982,35.0006 35.7632,34.9476 35.7282,34.8756 C34.5162,33.7016 33.1442,32.9706 31.6132,32.6866 C31.0782,32.5796 30.5082,32.5266 29.9032,32.5266 C27.5862,32.5266 25.6272,33.3106 24.0242,34.8756 C23.3822,35.5876 22.8482,36.3536 22.4202,37.1726 C22.1002,37.8496 21.9402,38.6146 21.9402,39.4696 L21.6722,56.5066 L14.9922,56.5066 L14.9922,44.7036 C15.0282,42.9586 15.1532,41.2136 15.3662,39.4696 C16.6842,29.4986 21.0132,20.8116 28.3532,13.4056 C35.8702,5.9636 44.6882,1.6196 54.8062,0.3736 C56.7662,0.1236 58.7792,-0.0004 60.8452,-0.0004 C61.4502,-0.0004 62.0562,0.0176 62.6612,0.0526 C69.4312,0.5866 75.2922,3.3286 80.2442,8.2786 C81.1352,9.1676 81.9542,10.0946 82.7022,11.0556 C85.4102,17.2146 85.8732,23.5706 84.0922,30.1236 C83.8782,33.2206 83.0942,36.0686 81.7412,38.6686 C81.3852,39.5586 80.9742,40.3946 80.5112,41.1786 C80.0132,41.9976 79.4782,42.7986 78.9082,43.5816 C77.9102,44.8286 76.7532,45.9676 75.4352,47.0006 C74.9002,47.3916 74.3482,47.7836 73.7792,48.1746 C72.9582,48.7086 72.0502,49.2076 71.0522,49.6706 C70.9092,49.7066 70.7842,49.7596 70.6782,49.8306 C67.6862,51.3266 64.4082,52.1806 60.8452,52.3946" id="Fill-19" fill="#825722" mask="url(#mask-4)"></path>
                <path d="M99.9565,56.8131 L99.9565,46.3211 C99.9565,37.0991 95.9835,32.0861 88.6445,30.8761 C87.8615,30.8041 87.0955,30.8131 86.2055,30.8131 L84.2275,30.8131 C84.0145,33.8131 83.2295,36.5551 81.8765,39.1551 C81.5195,40.0441 81.1095,40.7791 80.6465,41.5631 C80.1475,42.3811 79.6135,43.1321 79.0435,43.9151 C78.0465,45.1621 76.8885,46.2751 75.5695,47.3081 C75.0355,47.6991 74.4835,48.0791 73.9135,48.4701 C73.0935,49.0041 72.1855,49.4961 71.1875,49.9591 C71.0455,49.9951 70.9205,50.1131 70.8135,50.1841 C67.8205,51.6801 64.5435,52.8131 60.9805,52.8131 L59.8055,52.8131 L58.9495,52.8131 L58.7895,52.8131 L58.7355,52.8131 C55.1375,52.8131 51.8425,51.6771 48.8495,50.1811 C46.5685,49.0061 44.4675,47.4231 42.5435,45.5001 C41.9365,44.8961 40.9765,43.4901 39.6565,41.3171 L39.0165,40.2941 C38.0895,38.5491 37.5915,37.6021 37.5195,37.4591 C37.3775,37.1391 37.2175,36.8701 37.0385,36.6561 C36.7535,36.1931 36.3975,35.7471 35.9705,35.3191 C35.9345,35.2841 35.8985,35.2301 35.8625,35.1581 C34.6515,33.9841 33.2795,33.2531 31.7475,32.9681 C31.2135,32.8621 30.6435,32.8091 30.0375,32.8091 C27.7225,32.8091 25.7625,33.5921 24.1595,35.1581 C23.5185,35.8711 22.9825,36.6361 22.5565,37.4551 C22.2355,38.1321 22.0755,38.9091 22.0755,39.7641 L21.8085,56.8131 L14.9565,56.8131 L14.9565,69.0201 L14.9565,88.5151 C14.9565,90.5441 15.9855,92.4141 17.7675,94.1231 C18.2295,94.5151 18.8255,94.9771 19.4675,95.5111 C20.5005,96.1881 21.6795,96.8461 22.9625,97.4881 C23.4605,97.7721 24.0235,98.0221 24.6295,98.2351 C25.6985,98.6981 26.8615,99.1791 28.1085,99.6771 C28.1805,99.6771 28.3075,99.7131 28.4855,99.7841 C28.9135,99.9621 29.3065,100.0871 29.6625,100.1581 C30.8385,100.5851 31.9965,100.9411 33.1365,101.2271 C33.6355,101.4041 34.1705,101.5461 34.7395,101.6531 C34.8115,101.6531 34.9185,101.6711 35.0605,101.7071 C36.1305,101.9921 37.1985,102.2241 38.2685,102.4011 C38.7675,102.5441 39.3015,102.6861 39.8715,102.8291 C40.8335,102.9711 41.7765,103.0961 42.7035,103.2021 C42.8815,103.2021 43.1125,103.2381 43.3975,103.3101 C43.8965,103.3801 44.4135,103.4871 44.9475,103.6301 C46.0525,103.7361 47.2275,103.8611 48.4755,104.0031 C49.0095,104.0031 49.5445,104.0391 50.0785,104.1111 C50.1135,104.1111 50.1855,104.1281 50.2925,104.1641 C51.2895,104.2711 52.3935,104.3411 53.6055,104.3781 C54.1035,104.3781 54.6395,104.5511 55.2095,104.6221 C55.9215,104.6221 56.6695,104.8131 57.4535,104.8131 L60.9805,104.8131 L64.5075,104.8131 L65.3625,104.8131 C66.5745,104.8131 67.7315,104.5861 68.8365,104.5161 C69.4065,104.4791 69.9585,104.3931 70.4935,104.3931 C71.6335,104.2151 72.7725,104.0731 73.9135,104.0381 C74.4835,103.9311 75.0355,103.8431 75.5695,103.8071 C76.7455,103.7001 77.9035,103.5311 79.0435,103.3181 C79.0795,103.2461 79.1335,103.2071 79.2035,103.2071 C79.6675,103.1711 80.1475,103.1331 80.6465,103.0981 C81.8225,102.9191 82.9985,102.6871 84.1745,102.4021 C84.6735,102.2601 85.1715,102.1171 85.6705,101.9751 C86.9175,101.7611 88.0935,101.4941 89.1975,101.1731 C89.7685,100.9591 90.3025,100.8161 90.8015,100.7461 C91.7275,100.4251 92.6185,100.1051 93.4735,99.7841 C93.7225,99.6771 94.0075,99.5881 94.3275,99.5171 C94.5065,99.4101 94.7015,99.3571 94.9165,99.3571 C95.2005,99.1081 95.5395,98.9471 95.9315,98.8761 C97.2145,98.3771 98.3905,97.8431 99.4585,97.2741 C99.9925,96.9541 100.5095,96.6511 101.0085,96.3661 C102.4335,95.5111 103.6705,94.6041 104.5975,93.6421 C106.1285,92.0041 106.9565,90.2951 106.9565,88.5151 L106.9565,56.8131 L99.9565,56.8131 Z" id="Fill-20" fill="#FBBD8E" mask="url(#mask-4)"></path>
                <path d="M60.8452,104.2555 L60.8452,52.3945 C64.4082,52.1805 67.6862,51.3265 70.6782,49.8305 C70.7842,49.7595 70.9092,49.7065 71.0522,49.6715 C72.0502,49.2075 72.9582,48.7095 73.7792,48.1745 C74.3482,47.7835 74.9002,47.3915 75.4352,47.0005 C76.7532,45.9675 77.9102,44.8285 78.9082,43.5825 C79.4782,42.7985 80.0132,41.9975 80.5112,41.1785 C80.9742,40.3955 81.3852,39.5585 81.7412,38.6685 C83.0942,36.0685 83.8782,33.2205 84.0922,30.1235 L86.0702,30.1235 C86.9602,30.2295 87.7972,30.3175 88.5812,30.3905 C95.9202,31.6005 99.7152,36.8175 99.9642,46.0385 L99.9642,56.5065 L106.6982,56.5065 L106.6982,88.2325 C106.6982,90.0125 105.9322,91.7215 104.4002,93.3595 C103.4742,94.3215 102.2982,95.2285 100.8722,96.0845 C100.3742,96.3685 99.8582,96.6715 99.3232,96.9915 C98.2542,97.5615 97.0782,98.0955 95.7952,98.5935 C95.4042,98.6645 95.0662,98.8255 94.7812,99.0745 C94.5672,99.0745 94.3702,99.1285 94.1932,99.2345 C93.8722,99.3065 93.5872,99.3955 93.3372,99.5015 C92.4832,99.8225 91.5922,100.1435 90.6652,100.4635 C90.1662,100.5345 89.6322,100.6775 89.0622,100.8915 C87.9572,101.2115 86.7822,101.4785 85.5352,101.6925 C85.0362,101.8345 84.5372,101.9775 84.0382,102.1185 C82.8632,102.4035 81.6872,102.6355 80.5112,102.8135 C80.0132,102.8495 79.5322,102.8845 79.0692,102.9205 C78.9972,102.9205 78.9442,102.9555 78.9082,103.0275 C77.7682,103.2405 76.6112,103.4015 75.4352,103.5075 C74.9002,103.5435 74.3482,103.6145 73.7792,103.7215 C72.6382,103.7565 71.4972,103.8635 70.3582,104.0415 C69.8242,104.0415 69.2712,104.0595 68.7012,104.0955 C67.5962,104.1665 66.4392,104.2195 65.2282,104.2555 L64.3722,104.2555 L60.8452,104.2555 Z" id="Fill-21" fill-opacity="0.5" fill="#000000" style="mix-blend-mode: overlay;" mask="url(#mask-4)"></path>
                <path d="M39.0942,64.5182 C38.6312,64.9812 38.0972,65.2132 37.4912,65.2132 C36.8852,65.2132 36.3512,64.9812 35.8882,64.5182 C35.4602,64.0562 35.2462,63.5222 35.2462,62.9152 C35.2462,62.3462 35.4602,61.8302 35.8882,61.3682 C36.3512,60.9052 36.8852,60.6732 37.4912,60.6732 C38.0972,60.6732 38.6312,60.9052 39.0942,61.3682 C39.5572,61.8302 39.7892,62.3462 39.7892,62.9152 C39.7892,63.5222 39.5572,64.0562 39.0942,64.5182" id="Fill-22" fill="#404040" mask="url(#mask-4)"></path>
                <path d="M78.855,64.1979 C78.392,63.7349 78.16,63.1829 78.16,62.5429 C78.16,61.9379 78.392,61.4039 78.855,60.9399 C79.318,60.4769 79.834,60.2449 80.405,60.2449 C81.082,60.2449 81.634,60.4769 82.062,60.9399 C82.489,61.4039 82.703,61.9379 82.703,62.5429 C82.703,63.1829 82.489,63.7349 82.062,64.1979 C81.634,64.5909 81.082,64.7849 80.405,64.7849 C79.834,64.7849 79.318,64.5909 78.855,64.1979" id="Fill-23" fill="#404040" mask="url(#mask-4)"></path>
                <polygon id="Fill-24" fill="#FBBD8E" mask="url(#mask-4)" points="70.5356 75.8131 54.6996 75.8131 59.9566 71.6221 59.9566 58.8571"></polygon>
                <path d="M39.4146,48.6559 C39.8436,48.6559 40.2166,48.8169 40.5376,49.1369 C40.8226,49.4219 40.9656,49.7599 40.9656,50.1519 C40.9656,50.5789 40.8226,50.9529 40.5376,51.2729 C40.2166,51.5579 39.8436,51.6999 39.4146,51.6999 L33.7506,51.6999 C33.3586,51.6999 33.0016,51.5579 32.6816,51.2729 C32.3606,50.9529 32.2006,50.5789 32.2006,50.1519 C32.2006,49.7599 32.3606,49.4219 32.6816,49.1369 C33.0016,48.8169 33.3586,48.6559 33.7506,48.6559 L39.4146,48.6559 Z" id="Fill-25" fill="#825722" mask="url(#mask-4)"></path>
                <path d="M85.5884,54.1031 C85.9084,54.4241 86.0694,54.7631 86.0694,55.1181 C86.0694,55.5461 85.9084,55.9191 85.5884,56.2401 C85.2684,56.5241 84.9294,56.6671 84.5724,56.6671 L78.8554,56.6671 C78.4274,56.6671 78.0534,56.5241 77.7334,56.2401 C77.4474,55.9191 77.3054,55.5461 77.3054,55.1181 C77.3054,54.7631 77.4474,54.4241 77.7334,54.1031 C78.0534,53.7831 78.4274,53.6241 78.8554,53.6241 L84.5724,53.6241 C84.9294,53.6241 85.2684,53.7831 85.5884,54.1031" id="Fill-26" fill="#825722" mask="url(#mask-4)"></path>
                <path d="M71.2124,92.4508 C68.3624,95.2638 64.9064,96.6708 60.8454,96.6708 C56.8554,96.6708 53.4344,95.0988 50.5844,92.2858 C47.7704,89.4378 46.3624,85.8128 46.3624,81.8128 L75.5414,81.8128 C75.4704,84.8128 74.6864,87.6388 73.1904,89.9898 C72.5844,90.7728 71.9254,91.7028 71.2124,92.4508" id="Fill-27" fill="#F1EEE5" mask="url(#mask-4)"></path>
                <polygon id="Fill-28" fill="#FBCD33" mask="url(#mask-4)" points="98.957 161.813 218.957 161.813 218.957 107.813 98.957 107.813"></polygon>
                <polygon id="Fill-29" fill="#FBCD33" mask="url(#mask-4)" points="216.7378 163.9039 101.5158 163.9039 99.2578 161.6459 218.9968 161.6459"></polygon>
                <polygon id="Fill-30" fill="#000000" style="mix-blend-mode: overlay;" mask="url(#mask-4)" points="216.7378 163.9039 101.5158 163.9039 99.2578 161.6459 218.9968 161.6459"></polygon>
                <path d="M137.7993,129.5465 C137.6903,129.9935 137.5173,130.5525 137.2803,131.2235 C137.0423,131.8935 136.7763,132.6185 136.4783,133.3975 C136.1793,134.1765 135.8663,134.9755 135.5423,135.7955 C135.2163,136.6155 134.9043,137.3835 134.6073,138.1015 C134.3083,138.8205 134.0443,139.4635 133.8133,140.0315 C133.5833,140.6005 133.4203,141.0215 133.3253,141.2925 C133.1353,141.8205 132.9363,142.1715 132.7253,142.3485 C132.5153,142.5255 132.3013,142.6125 132.0853,142.6125 C131.9903,142.6125 131.9053,142.6165 131.8313,142.6225 C131.7563,142.6305 131.6793,142.5995 131.5983,142.5315 C131.5163,142.4635 131.4213,142.3445 131.3133,142.1765 C131.2033,142.0065 131.0683,141.7465 130.9053,141.3935 C130.8383,141.2305 130.7303,140.8755 130.5803,140.3265 C130.4303,139.7775 130.2653,139.1425 130.0813,138.4175 C129.8993,137.6915 129.7223,136.9375 129.5533,136.1505 C129.3853,135.3655 129.2453,134.6535 129.1383,134.0175 C128.9873,134.3965 128.8093,134.8265 128.5983,135.3075 C128.3873,135.7885 128.1643,136.2795 127.9263,136.7805 C127.6903,137.2825 127.4513,137.7765 127.2163,138.2645 C126.9783,138.7525 126.7613,139.1885 126.5653,139.5745 C126.3683,139.9605 126.2053,140.2825 126.0773,140.5405 C125.9473,140.7985 125.8703,140.9455 125.8443,140.9875 C125.6533,141.3525 125.5003,141.6305 125.3853,141.8205 C125.2703,142.0105 125.1653,142.1495 125.0703,142.2365 C124.9763,142.3255 124.8803,142.3795 124.7853,142.3995 C124.6913,142.4205 124.5743,142.4365 124.4413,142.4495 C124.2903,142.4635 124.1653,142.4605 124.0633,142.4415 C123.9613,142.4205 123.8733,142.3615 123.7993,142.2665 C123.7263,142.1715 123.6633,142.0325 123.6163,141.8515 C123.5693,141.6685 123.5253,141.4215 123.4853,141.1095 C123.4713,141.0145 123.4493,140.8525 123.4233,140.6215 C123.3963,140.3915 123.3653,140.1285 123.3313,139.8295 C123.2973,139.5305 123.2603,139.2225 123.2203,138.9035 C123.1803,138.5865 123.1393,138.2845 123.0983,138.0005 C123.0433,137.5805 122.9693,137.0715 122.8743,136.4755 C122.7783,135.8795 122.6893,135.2335 122.6003,134.5355 C122.5123,133.8375 122.4343,133.1035 122.3663,132.3305 C122.2983,131.5585 122.2653,130.7855 122.2653,130.0135 C122.2653,129.6625 122.3313,129.3905 122.4683,129.2015 C122.6033,129.0115 122.8803,128.9165 123.3023,128.9165 C123.5443,128.9165 123.7453,128.9635 123.9013,129.0585 C124.0563,129.1535 124.2083,129.3775 124.3593,129.7295 C124.3593,130.0005 124.3753,130.2645 124.4093,130.5225 C124.4433,130.7795 124.4673,130.9625 124.4803,131.0705 C124.5223,131.5315 124.5723,132.0495 124.6323,132.6255 C124.6943,133.2005 124.7623,133.8075 124.8363,134.4435 C124.9103,135.0805 124.9893,135.7275 125.0703,136.3845 C125.1513,137.0425 125.2333,137.6745 125.3143,138.2845 C125.4903,137.9185 125.6843,137.5055 125.8953,137.0455 C126.1043,136.5845 126.3143,136.1105 126.5253,135.6225 C126.7343,135.1345 126.9383,134.6535 127.1343,134.1795 C127.3303,133.7055 127.5143,133.2755 127.6843,132.8895 C127.8533,132.5035 127.9943,132.1745 128.1103,131.9035 C128.2253,131.6325 128.3043,131.4565 128.3433,131.3755 C128.5473,130.8875 128.7093,130.5115 128.8323,130.2475 C128.9543,129.9835 129.0693,129.7905 129.1773,129.6685 C129.2853,129.5465 129.3983,129.4755 129.5133,129.4555 C129.6273,129.4345 129.7803,129.4245 129.9703,129.4245 C130.0663,129.4245 130.1513,129.5055 130.2253,129.6685 C130.2993,129.8315 130.3643,130.0175 130.4173,130.2275 C130.4723,130.4375 130.5203,130.6505 130.5613,130.8675 C130.6003,131.0845 130.6343,131.2535 130.6623,131.3755 C130.6753,131.4165 130.7153,131.5955 130.7833,131.9135 C130.8523,132.2325 130.9343,132.6255 131.0283,133.0925 C131.1233,133.5595 131.2273,134.0745 131.3443,134.6365 C131.4583,135.1995 131.5673,135.7445 131.6683,136.2725 C131.7703,136.8005 131.8643,137.2855 131.9523,137.7255 C132.0413,138.1655 132.1053,138.4935 132.1473,138.7115 C132.4973,137.7485 132.8633,136.7775 133.2433,135.7955 C133.6233,134.8135 133.9793,133.9125 134.3123,133.0925 C134.6453,132.2735 134.9293,131.5785 135.1653,131.0095 C135.4033,130.4405 135.5563,130.0885 135.6233,129.9535 C135.7723,129.6005 135.9353,129.2725 136.1123,128.9675 C136.2873,128.6625 136.5303,128.5095 136.8433,128.5095 C137.0603,128.5095 137.2333,128.5445 137.3623,128.6115 C137.4903,128.6795 137.5893,128.7635 137.6553,128.8655 C137.7243,128.9675 137.7643,129.0715 137.7783,129.1805 C137.7913,129.2895 137.7913,129.3905 137.7783,129.4855 L137.7993,129.5465 Z" id="Fill-31" fill="#8D5514" mask="url(#mask-4)"></path>
                <path d="M143.8384,135.6632 C143.8644,135.4742 143.7894,135.2802 143.6144,135.0842 C143.4384,134.8882 143.1524,134.7892 142.7594,134.7892 C142.4614,134.7892 142.1394,134.8602 141.7944,135.0022 C141.4484,135.1442 141.1134,135.3412 140.7884,135.5922 C140.4624,135.8432 140.1714,136.1472 139.9134,136.5062 C139.6544,136.8662 139.4584,137.2682 139.3244,137.7162 C139.4854,137.7692 139.7064,137.7732 139.9844,137.7262 C140.2624,137.6782 140.5614,137.6012 140.8794,137.4922 C141.1974,137.3842 141.5244,137.2512 141.8554,137.0962 C142.1884,136.9392 142.4924,136.7772 142.7704,136.6082 C143.0484,136.4392 143.2854,136.2692 143.4824,136.1002 C143.6784,135.9312 143.7974,135.7852 143.8384,135.6632 M145.7484,135.9482 C145.7224,136.3952 145.4974,136.7902 145.0774,137.1362 C144.6574,137.4822 144.1224,137.7932 143.4724,138.0702 C142.8204,138.3482 142.1064,138.5972 141.3274,138.8122 C140.5464,139.0302 139.7854,139.2262 139.0394,139.4022 C139.0124,139.7412 139.0264,140.0392 139.0794,140.2962 C139.1344,140.5402 139.2154,140.7262 139.3244,140.8552 C139.4324,140.9832 139.5474,141.0762 139.6694,141.1292 C139.7914,141.1842 139.9134,141.2152 140.0354,141.2222 C140.1574,141.2282 140.2664,141.2302 140.3604,141.2302 C140.6854,141.2302 141.0074,141.1772 141.3274,141.0682 C141.6454,140.9602 141.9564,140.8252 142.2624,140.6622 C142.5674,140.4992 142.8614,140.3162 143.1474,140.1132 C143.4314,139.9102 143.7014,139.7132 143.9594,139.5242 C144.1094,139.4422 144.2264,139.3782 144.3164,139.3302 C144.4024,139.2832 144.4884,139.2502 144.5694,139.2292 C144.6504,139.2082 144.7384,139.1952 144.8344,139.1882 C144.9284,139.1822 145.0504,139.1792 145.1994,139.1792 C145.4314,139.1792 145.5834,139.2572 145.6584,139.4122 C145.7314,139.5682 145.7554,139.8012 145.7294,140.1132 C145.7164,140.3032 145.5324,140.5532 145.1794,140.8652 C144.8264,141.1772 144.3764,141.4782 143.8274,141.7692 C143.2784,142.0612 142.6624,142.3152 141.9774,142.5312 C141.2924,142.7472 140.6054,142.8562 139.9134,142.8562 C138.9784,142.8562 138.2594,142.5852 137.7574,142.0442 C137.2574,141.5012 137.0474,140.6552 137.1274,139.5042 C137.1824,138.7452 137.3614,137.9932 137.6674,137.2482 C137.9724,136.5032 138.3824,135.8322 138.8964,135.2362 C139.4124,134.6402 140.0154,134.1602 140.7064,133.7932 C141.3984,133.4272 142.1634,133.2452 143.0044,133.2452 C143.4234,133.2452 143.8114,133.3132 144.1624,133.4482 C144.5154,133.5832 144.8134,133.7702 145.0584,134.0072 C145.3014,134.2442 145.4844,134.5282 145.6074,134.8602 C145.7294,135.1922 145.7754,135.5552 145.7484,135.9482" id="Fill-32" fill="#8D5514" mask="url(#mask-4)"></path>
                <path d="M148.9565,141.0079 C148.9565,141.4419 148.8735,141.7909 148.7665,142.0539 C148.6575,142.3179 148.4565,142.4559 148.0905,142.4709 C147.7785,142.4979 147.5575,142.3859 147.3875,142.1349 C147.2175,141.8849 147.1495,141.5439 147.1625,141.1089 L147.9605,130.3189 C147.9755,130.1289 147.9965,129.9359 148.0235,129.7399 C148.0515,129.5439 148.1025,129.3639 148.1785,129.2009 C148.2515,129.0389 148.3575,128.9029 148.4925,128.7949 C148.6285,128.6859 148.8115,128.6249 149.0425,128.6119 C149.3135,128.5989 149.5145,128.6349 149.6435,128.7229 C149.7705,128.8119 149.8565,128.9339 149.8965,129.0899 C149.9375,129.2449 149.9475,129.4319 149.9275,129.6479 C149.9075,129.8649 149.8095,130.0889 149.7825,130.3189 L148.9565,140.9879 L148.9565,141.0079 Z" id="Fill-33" fill="#8D5514" mask="url(#mask-4)"></path>
                <path d="M159.4321,139.9913 L158.7421,140.7623 C158.6061,140.9393 158.4191,141.1433 158.1821,141.3733 C157.9451,141.6033 157.6431,141.8243 157.2771,142.0333 C156.9111,142.2433 156.4671,142.4203 155.9471,142.5623 C155.4231,142.7043 154.8101,142.7763 154.1061,142.7763 C153.5501,142.7763 153.0821,142.6773 152.7031,142.4803 C152.3241,142.2843 152.0181,142.0243 151.7871,141.6983 C151.5571,141.3733 151.3951,141.0043 151.3001,140.5913 C151.2041,140.1783 151.1691,139.7553 151.1991,139.3213 C151.2511,138.5073 151.4461,137.7253 151.7781,136.9733 C152.1101,136.2213 152.5301,135.5543 153.0381,134.9723 C153.5461,134.3893 154.1261,133.9263 154.7771,133.5803 C155.4281,133.2343 156.0981,133.0623 156.7891,133.0623 C157.3451,133.0623 157.8261,133.1033 158.2331,133.1833 C158.6401,133.2653 159.0531,133.4613 159.4741,133.7733 C159.8391,134.0573 160.0431,134.3283 160.0831,134.5863 C160.1231,134.8433 160.0661,135.0503 159.9111,135.2053 C159.7541,135.3623 159.5381,135.4563 159.2601,135.4903 C158.9821,135.5243 158.7011,135.4603 158.4161,135.2973 C158.3071,135.1353 158.0971,135.0123 157.7861,134.9313 C157.4731,134.8503 157.1011,134.8093 156.6671,134.8093 C156.2741,134.8093 155.8781,134.9353 155.4791,135.1853 C155.0781,135.4363 154.7081,135.7723 154.3701,136.1913 C154.0321,136.6113 153.7481,137.0933 153.5261,137.6343 C153.3021,138.1763 153.1701,138.7393 153.1291,139.3213 C153.1161,139.5243 153.1261,139.7263 153.1601,139.9303 C153.1931,140.1343 153.2611,140.3163 153.3631,140.4783 C153.4641,140.6413 153.5961,140.7743 153.7601,140.8753 C153.9231,140.9763 154.1201,141.0273 154.3491,141.0273 C154.7561,141.0273 155.1501,140.9633 155.5301,140.8343 C155.9091,140.7053 156.2501,140.5433 156.5551,140.3473 C156.8611,140.1513 157.1181,139.9453 157.3281,139.7263 C157.5381,139.5103 157.6921,139.3073 157.7861,139.1173 C157.8131,139.0773 157.8501,139.0033 157.8981,138.8943 C157.9451,138.7853 158.0121,138.6813 158.1011,138.5803 C158.1891,138.4773 158.3071,138.3863 158.4571,138.3043 C158.6061,138.2223 158.8021,138.1833 159.0461,138.1833 C159.5891,138.1833 159.8701,138.3553 159.8901,138.7013 C159.9111,139.0463 159.7591,139.4773 159.4321,139.9913" id="Fill-34" fill="#8D5514" mask="url(#mask-4)"></path>
                <path d="M168.0747,136.923 C168.0877,136.679 168.0787,136.435 168.0447,136.192 C168.0107,135.948 167.9397,135.727 167.8307,135.531 C167.7207,135.335 167.5737,135.179 167.3837,135.064 C167.1937,134.949 166.9487,134.891 166.6507,134.891 C165.9867,134.891 165.4047,135.03 164.9027,135.307 C164.4007,135.585 163.9807,135.937 163.6417,136.364 C163.3037,136.791 163.0397,137.261 162.8497,137.777 C162.6587,138.291 162.5447,138.778 162.5037,139.239 C162.4897,139.442 162.5007,139.654 162.5347,139.87 C162.5677,140.086 162.6367,140.28 162.7367,140.449 C162.8387,140.618 162.9847,140.756 163.1747,140.865 C163.3637,140.975 163.6017,141.027 163.8877,141.027 C164.4287,141.027 164.9437,140.913 165.4307,140.682 C165.9187,140.452 166.3527,140.148 166.7327,139.769 C167.1127,139.389 167.4217,138.953 167.6577,138.457 C167.8957,137.963 168.0347,137.451 168.0747,136.923 M170.0077,136.923 C169.9517,137.722 169.7427,138.474 169.3767,139.179 C169.0107,139.883 168.5427,140.503 167.9727,141.039 C167.4037,141.573 166.7567,141.997 166.0307,142.309 C165.3047,142.62 164.5517,142.776 163.7637,142.776 C163.1407,142.776 162.6177,142.675 162.1987,142.471 C161.7777,142.267 161.4417,142 161.1917,141.668 C160.9417,141.336 160.7677,140.957 160.6737,140.529 C160.5787,140.104 160.5447,139.674 160.5717,139.239 C160.6127,138.563 160.7847,137.855 161.0907,137.116 C161.3957,136.378 161.8197,135.704 162.3607,135.094 C162.9027,134.485 163.5537,133.983 164.3127,133.59 C165.0717,133.197 165.9317,133.001 166.8957,133.001 C167.4787,133.001 167.9757,133.113 168.3897,133.337 C168.8037,133.56 169.1357,133.855 169.3867,134.22 C169.6367,134.586 169.8127,135.006 169.9147,135.481 C170.0157,135.954 170.0467,136.435 170.0077,136.923" id="Fill-35" fill="#8D5514" mask="url(#mask-4)"></path>
                <path d="M183.9565,141.0079 C183.9565,142.0499 183.6735,142.5179 183.0915,142.4099 C182.8065,142.3549 182.7225,142.2289 182.6075,142.0329 C182.4925,141.8369 182.4855,141.5499 182.4735,141.1709 L182.8895,135.3989 C182.9015,135.3049 182.9195,135.2259 182.9125,135.1649 C182.9055,135.1049 182.8625,135.0739 182.7675,135.0739 C182.7275,135.0739 182.5855,135.1009 182.3345,135.1549 C182.0825,135.2089 181.7905,135.3049 181.4515,135.4399 C181.1125,135.5749 180.7545,135.7549 180.3755,135.9779 C179.9945,136.2009 179.6565,136.4829 179.3585,136.8209 L178.9925,140.9879 C178.9925,141.0959 178.9795,141.2379 178.9525,141.4129 C178.9245,141.5899 178.8735,141.7589 178.8005,141.9229 C178.7255,142.0849 178.6265,142.2199 178.5055,142.3279 C178.3835,142.4369 178.2275,142.4769 178.0375,142.4499 C177.6165,142.3829 177.3495,142.2539 177.2345,142.0639 C177.1185,141.8739 177.0675,141.5149 177.0825,140.9879 L177.4885,135.3989 C177.5015,135.3179 177.5065,135.2529 177.4985,135.2059 C177.4915,135.1579 177.4475,135.1349 177.3675,135.1349 C177.2855,135.1349 177.1125,135.1929 176.8495,135.3069 C176.5835,135.4229 176.2855,135.5719 175.9525,135.7549 C175.6205,135.9369 175.2855,136.1339 174.9465,136.3439 C174.6065,136.5539 174.3155,136.7549 174.0725,136.9439 L173.5635,141.0479 C173.5505,141.2379 173.5235,141.4209 173.4825,141.5959 C173.4415,141.7729 173.3805,141.9229 173.3005,142.0439 C173.2195,142.1649 173.1095,142.2579 172.9745,142.3179 C172.8385,142.3789 172.6705,142.3899 172.4675,142.3479 C172.0715,142.2669 171.8315,142.1009 171.7445,141.8509 C171.6555,141.6009 171.6405,141.3119 171.6935,140.9879 L172.1615,134.4239 C172.2155,133.9899 172.3415,133.6959 172.5375,133.5399 C172.7335,133.3839 172.9945,133.3059 173.3205,133.3059 C173.5915,133.3059 173.7975,133.3869 173.9405,133.5499 C174.0815,133.7129 174.1125,133.9429 174.0315,134.2409 L173.9915,134.8299 C174.3975,134.6539 174.8205,134.4409 175.2625,134.1899 C175.7025,133.9389 176.1295,133.7049 176.5435,133.4889 C176.9565,133.2719 177.3435,133.0919 177.7025,132.9499 C178.0605,132.8079 178.3755,132.7509 178.6465,132.7779 C178.9045,132.8049 179.1015,132.8619 179.2365,132.9499 C179.3725,133.0379 179.4545,133.2929 179.4805,133.7129 L179.5215,134.5459 C180.2535,134.1929 180.8515,133.9089 181.3105,133.6919 C181.7715,133.4759 182.1915,133.2659 182.5715,133.0619 C182.9905,132.8589 183.3545,132.7809 183.6595,132.8279 C183.9645,132.8759 184.2085,132.9869 184.3925,133.1639 C184.5745,133.3399 184.7075,133.5469 184.7875,133.7839 C184.8695,134.0209 184.6705,134.2409 184.6565,134.4439 L183.9565,141.0479 L183.9565,141.0079 Z" id="Fill-36" fill="#8D5514" mask="url(#mask-4)"></path>
                <path d="M193.2065,135.6632 C193.2325,135.4742 193.1585,135.2802 192.9825,135.0842 C192.8075,134.8882 192.5215,134.7892 192.1285,134.7892 C191.8305,134.7892 191.5085,134.8602 191.1635,135.0022 C190.8165,135.1442 190.4805,135.3412 190.1565,135.5922 C189.8305,135.8432 189.5395,136.1472 189.2815,136.5062 C189.0235,136.8662 188.8275,137.2682 188.6915,137.7162 C188.8545,137.7692 189.0755,137.7732 189.3535,137.7262 C189.6305,137.6782 189.9305,137.6012 190.2475,137.4922 C190.5655,137.3842 190.8925,137.2512 191.2245,137.0962 C191.5565,136.9392 191.8595,136.7772 192.1385,136.6082 C192.4165,136.4392 192.6545,136.2692 192.8515,136.1002 C193.0475,135.9312 193.1665,135.7852 193.2065,135.6632 M195.1165,135.9482 C195.0905,136.3952 194.8665,136.7902 194.4455,137.1362 C194.0265,137.4822 193.4905,137.7932 192.8405,138.0702 C192.1885,138.3482 191.4745,138.5972 190.6955,138.8122 C189.9155,139.0302 189.1525,139.2262 188.4075,139.4022 C188.3815,139.7412 188.3945,140.0392 188.4485,140.2962 C188.5025,140.5402 188.5835,140.7262 188.6915,140.8552 C188.8005,140.9832 188.9155,141.0762 189.0385,141.1292 C189.1595,141.1842 189.2815,141.2152 189.4045,141.2222 C189.5255,141.2282 189.6345,141.2302 189.7285,141.2302 C190.0545,141.2302 190.3765,141.1772 190.6955,141.0682 C191.0135,140.9602 191.3255,140.8252 191.6305,140.6622 C191.9355,140.4992 192.2305,140.3162 192.5155,140.1132 C192.8005,139.9102 193.0705,139.7132 193.3275,139.5242 C193.4775,139.4422 193.5955,139.3782 193.6855,139.3302 C193.7715,139.2832 193.8565,139.2502 193.9385,139.2292 C194.0195,139.2082 194.1065,139.1952 194.2035,139.1882 C194.2975,139.1822 194.4195,139.1792 194.5685,139.1792 C194.7995,139.1792 194.9515,139.2572 195.0255,139.4122 C195.1005,139.5682 195.1245,139.8012 195.0975,140.1132 C195.0835,140.3032 194.9005,140.5532 194.5475,140.8652 C194.1955,141.1772 193.7445,141.4782 193.1955,141.7692 C192.6475,142.0612 192.0295,142.3152 191.3465,142.5312 C190.6605,142.7472 189.9745,142.8562 189.2815,142.8562 C188.3475,142.8562 187.6285,142.5852 187.1265,142.0442 C186.6245,141.5012 186.4155,140.6552 186.4965,139.5042 C186.5495,138.7452 186.7305,137.9932 187.0345,137.2482 C187.3395,136.5032 187.7505,135.8322 188.2655,135.2362 C188.7805,134.6402 189.3835,134.1602 190.0755,133.7932 C190.7665,133.4272 191.5315,133.2452 192.3725,133.2452 C192.7925,133.2452 193.1795,133.3132 193.5315,133.4482 C193.8835,133.5832 194.1825,133.7702 194.4265,134.0072 C194.6705,134.2442 194.8525,134.5282 194.9765,134.8602 C195.0975,135.1922 195.1435,135.5552 195.1165,135.9482" id="Fill-37" fill="#8D5514" mask="url(#mask-4)"></path>
                <polygon id="Fill-38" fill="#636466" mask="url(#mask-4)" points="211.957 130.813 223.957 130.813 223.957 121.813 211.957 121.813"></polygon>
                <path d="M216.1118,126.2228 C216.1118,128.5858 214.1938,130.5018 211.8298,130.5018 C209.4658,130.5018 207.5478,128.5858 207.5478,126.2228 C207.5478,123.8598 209.4658,121.9438 211.8298,121.9438 C214.1938,121.9438 216.1118,123.8598 216.1118,126.2228" id="Fill-39" fill="#636466" mask="url(#mask-4)"></path>
                <path d="M223.2476,130.8131 C225.6116,130.8131 227.5286,128.6761 227.5286,126.3131 C227.5286,123.9501 225.6116,121.8131 223.2476,121.8131 L218.9656,121.8131 C221.3306,121.8131 220.3936,123.9501 220.3936,126.3131 C220.3936,128.6761 221.3306,130.8131 218.9656,130.8131 L223.2476,130.8131 Z" id="Fill-40" fill="#636466" mask="url(#mask-4)"></path>
                <path d="M213.2563,134.7809 C213.2563,137.1449 211.3393,139.0609 208.9743,139.0609 C206.6103,139.0609 204.6933,137.1449 204.6933,134.7809 C204.6933,132.4179 206.6103,130.5019 208.9743,130.5019 C211.3393,130.5019 213.2563,132.4179 213.2563,134.7809" id="Fill-41" fill="#636466" mask="url(#mask-4)"></path>
                <path d="M228.9565,134.7809 C228.9565,137.1449 227.0395,139.0609 224.6755,139.0609 C222.3105,139.0609 220.3935,137.1449 220.3935,134.7809 C220.3935,132.4179 222.3105,130.5019 224.6755,130.5019 C227.0395,130.5019 228.9565,132.4179 228.9565,134.7809" id="Fill-42" fill="#636466" mask="url(#mask-4)"></path>
                <polygon id="Fill-43" fill="#636466" mask="url(#mask-4)" points="208.957 138.813 225.957 138.813 225.957 130.813 208.957 130.813"></polygon>
                <path d="M224.6753,138.8131 C227.0393,138.8131 228.9563,137.1771 228.9563,134.8131 C228.9563,132.4491 227.0393,130.8131 224.6753,130.8131 L220.3933,130.8131 C222.7583,130.8131 224.6753,132.4491 224.6753,134.8131 C224.6753,137.1771 222.7583,138.8131 220.3933,138.8131 L224.6753,138.8131 Z" id="Fill-44" fill="#636466" mask="url(#mask-4)"></path>
                <path d="M213.2563,143.3395 C213.2563,145.7035 211.3393,147.6195 208.9743,147.6195 C206.6103,147.6195 204.6933,145.7035 204.6933,143.3395 C204.6933,140.9765 206.6103,139.0605 208.9743,139.0605 C211.3393,139.0605 213.2563,140.9765 213.2563,143.3395" id="Fill-45" fill="#636466" mask="url(#mask-4)"></path>
                <path d="M228.9565,143.3395 C228.9565,145.7035 227.0395,147.6195 224.6755,147.6195 C222.3105,147.6195 220.3935,145.7035 220.3935,143.3395 C220.3935,140.9765 222.3105,139.0605 224.6755,139.0605 C227.0395,139.0605 228.9565,140.9765 228.9565,143.3395" id="Fill-46" fill="#636466" mask="url(#mask-4)"></path>
                <polygon id="Fill-47" fill="#636466" mask="url(#mask-4)" points="208.957 147.813 225.957 147.813 225.957 138.813 208.957 138.813"></polygon>
                <path d="M224.6753,147.8131 C227.0393,147.8131 228.9563,145.6771 228.9563,143.3131 C228.9563,140.9491 227.0393,138.8131 224.6753,138.8131 L220.3933,138.8131 C222.7583,138.8131 224.6753,140.9491 224.6753,143.3131 C224.6753,145.6771 222.7583,147.8131 220.3933,147.8131 L224.6753,147.8131 Z" id="Fill-48" fill="#636466" mask="url(#mask-4)"></path>
                <path d="M216.1118,151.8981 C216.1118,154.2621 214.1938,156.1781 211.8298,156.1781 C209.4658,156.1781 207.5478,154.2621 207.5478,151.8981 C207.5478,149.5351 209.4658,147.6191 211.8298,147.6191 C214.1938,147.6191 216.1118,149.5351 216.1118,151.8981" id="Fill-49" fill="#636466" mask="url(#mask-4)"></path>
                <path d="M227.5288,151.8981 C227.5288,154.2621 225.6118,156.1781 223.2478,156.1781 C220.8828,156.1781 218.9658,154.2621 218.9658,151.8981 C218.9658,149.5351 220.8828,147.6191 223.2478,147.6191 C225.6118,147.6191 227.5288,149.5351 227.5288,151.8981" id="Fill-50" fill="#636466" mask="url(#mask-4)"></path>
                <polygon id="Fill-51" fill="#636466" mask="url(#mask-4)" points="211.957 156.813 223.957 156.813 223.957 147.813 211.957 147.813"></polygon>
                <path d="M223.2476,156.8131 C225.6116,156.8131 227.5286,154.6771 227.5286,152.3131 C227.5286,149.9491 225.6116,147.8131 223.2476,147.8131 L218.9656,147.8131 C221.3306,147.8131 223.2476,149.9491 223.2476,152.3131 C223.2476,154.6771 221.3306,156.8131 218.9656,156.8131 L223.2476,156.8131 Z" id="Fill-52" fill="#636466" mask="url(#mask-4)"></path>
                <path d="M207.5474,126.2228 C207.5474,128.5858 209.4654,130.5018 211.8294,130.5018 L218.9654,130.5018 L223.2474,130.5018 C225.6114,130.5018 227.5284,128.5858 227.5284,126.2228 C227.5284,125.4418 227.3164,124.7128 226.9504,124.0838 C226.2104,125.3608 224.8314,126.2228 223.2474,126.2228 L218.9654,126.2228 L207.5474,126.2228 Z" id="Fill-53" fill="#404040" mask="url(#mask-4)"></path>
                <path d="M204.6929,134.7809 C204.6929,137.1449 206.6099,139.0609 208.9739,139.0609 L220.3929,139.0609 L224.6749,139.0609 C227.0399,139.0609 228.9569,137.1449 228.9569,134.7809 C228.9569,133.9999 228.7439,133.2719 228.3789,132.6419 C227.6379,133.9199 226.2589,134.7809 224.6749,134.7809 L220.3929,134.7809 L204.6929,134.7809 Z" id="Fill-54" fill="#404040" mask="url(#mask-4)"></path>
                <path d="M204.6929,143.3395 C204.6929,145.7035 206.6099,147.6195 208.9739,147.6195 L220.3929,147.6195 L224.6749,147.6195 C227.0399,147.6195 228.9569,145.7035 228.9569,143.3395 C228.9569,142.5605 228.7439,141.8305 228.3789,141.2005 C227.6379,142.4775 226.2589,143.3395 224.6749,143.3395 L220.3929,143.3395 L204.6929,143.3395 Z" id="Fill-55" fill="#404040" mask="url(#mask-4)"></path>
                <path d="M207.5474,151.8981 C207.5474,154.2621 209.4654,156.1781 211.8294,156.1781 L218.9654,156.1781 L223.2474,156.1781 C225.6114,156.1781 227.5284,154.2621 227.5284,151.8981 C227.5284,151.1191 227.3164,150.3891 226.9504,149.7591 C226.2104,151.0361 224.8314,151.8981 223.2474,151.8981 L218.9654,151.8981 L207.5474,151.8981 Z" id="Fill-56" fill="#404040" mask="url(#mask-4)"></path>
            </g>
        </g>
    </g>
</svg>