<?xml version="1.0" encoding="UTF-8"?>
<svg width="171px" height="177px" viewBox="0 0 171 177" version="1.1" xmlns="http://www.w3.org/2000/svg" xmlns:xlink="http://www.w3.org/1999/xlink">
    <!-- Generator: Sketch 41.2 (35397) - http://www.bohemiancoding.com/sketch -->
    <title>hiw_find-transfer</title>
    <desc>Created with Sketch.</desc>
    <defs>
        <polygon id="path-1" points="0.6824 8 59.2694 8 59.2694 0.0150212789 0.6824 0.0150212789 0.6824 8"></polygon>
    </defs>
    <g id="Page-1" stroke="none" stroke-width="1" fill="none" fill-rule="evenodd">
        <g id="home" transform="translate(-27.000000, -7.000000)">
            <g id="hiw_find-transfer" transform="translate(27.500000, 6.000000)">
                <path d="M170,92.4204 C170,139.1654 131.944,177.0614 85,177.0614 C38.056,177.0614 0,139.1654 0,92.4204 C0,45.6754 38.056,7.7784 85,7.7784 C131.944,7.7784 170,45.6754 170,92.4204" id="Fill-1" fill="#9DD8F7"></path>
                <g id="Group-5" transform="translate(0.000000, 89.375000)" fill="#FFFFFF">
                    <path d="M29.5439,55.856 C28.2429,52.228 26.9409,52.228 29.2829,43.158 C31.6259,34.088 20.3499,31.945 16.5809,30.165 C12.8119,28.385 15.2309,22.945 11.1039,19.975 C6.9759,17.004 7.1639,13.876 6.3829,7.398 C5.7729,2.331 3.2479,1.858 0.0619,0.902 C0.0389,1.72 -0.0001,2.535 -0.0001,3.359 C-0.0001,29.291 11.7229,52.484 30.1659,68.011 C28.5949,62.381 30.7529,59.229 29.5439,55.856" id="Fill-3"></path>
                </g>
                <path d="M41.4194,20.063 C26.2864,29.082 14.2154,42.652 7.0944,58.876 C12.0464,59.621 15.7914,56.987 18.3534,50.904 C21.7364,42.872 30.0644,40.539 35.7894,38.725 C41.5144,36.911 44.1174,34.838 46.9794,30.174 C49.8414,25.509 50.8834,20.585 46.4634,23.043 C42.0444,25.5 38.6514,28.618 39.5164,25.449 C39.8834,24.105 40.4904,22.138 41.4194,20.063" id="Fill-6" fill="#FFFFFF"></path>
                <path d="M166.6064,69.0649 C158.5794,41.5819 136.9504,19.8759 109.4454,11.6629 C106.5664,14.8409 105.9364,19.2859 108.9154,21.8799 C113.0784,25.5089 112.2974,28.8779 108.1344,28.0999 C103.9704,27.3229 103.7814,34.3849 100.1034,32.2789 C96.4234,30.1739 92.5204,27.0639 87.5754,30.9509 C82.6314,34.8379 80.7714,38.1709 85.1214,39.6169 C89.4714,41.0629 92.0004,41.8349 92.0004,37.6889 C92.0004,33.5429 95.3824,32.5059 96.9444,35.0969 C98.5054,37.6889 97.4234,40.6589 94.0614,43.7089 C90.6984,46.7579 89.1904,45.8419 86.6914,43.7089 C84.1924,41.5749 83.4124,43.1299 82.1114,45.7219 C80.8094,48.3129 76.6464,50.9049 73.2634,50.3859 C69.8794,49.8679 70.6594,51.9399 73.0024,54.0139 C75.3454,56.0869 74.7104,58.6689 69.1714,58.0259 C63.6334,57.3829 59.9914,63.8619 65.9764,63.8619 C71.9614,63.8619 74.0434,61.2699 78.4674,58.1599 C82.8924,55.0509 84.4534,56.3469 87.8354,60.4929 C91.2194,64.6389 94.1354,66.0009 91.7664,60.9149 C89.3974,55.8279 91.5864,55.0949 94.7864,59.3489 C97.9854,63.6029 99.5444,64.4249 105.6614,64.4019 C111.7774,64.3799 116.7224,66.9709 116.4614,70.3399 C116.2014,73.7089 118.0934,77.1959 110.2514,74.0269 C102.4094,70.8579 98.1904,73.2829 96.9174,76.0869 C95.6434,78.8919 91.4804,75.5229 86.0144,70.5989 C80.5494,65.6749 81.0704,65.4169 72.7424,66.9709 C65.8174,68.2639 62.5924,73.4489 56.0874,75.2639 C49.5814,77.0779 46.4594,84.8519 47.5004,94.9589 C48.5404,105.0649 56.0084,114.8649 66.1964,113.8519 C76.3854,112.8379 87.8354,110.7659 86.2744,117.5029 C84.7134,124.2409 94.8614,133.3109 90.6984,137.7159 C86.5344,142.1219 88.8314,145.1549 90.9364,151.9309 C93.0414,158.7059 95.7044,167.1339 103.3504,161.4959 C110.9964,155.8559 115.6884,153.5569 119.9784,145.1179 C124.2694,136.6789 121.1464,130.7189 127.6514,120.8719 C134.1574,111.0249 137.2804,106.3599 138.3214,102.9909 C139.3624,99.6229 136.4994,100.3999 132.3354,101.4369 C128.1724,102.4729 126.8724,99.6229 121.9274,91.3299 C116.9814,83.0379 114.2944,75.0759 119.9324,80.8709 C125.5694,86.6659 127.9124,94.4399 132.8564,94.1809 C137.8014,93.9209 138.3294,93.0699 141.7044,86.9249 C145.0804,80.7789 145.0874,76.8169 140.4034,78.3729 C135.7194,79.9279 132.8564,78.6319 131.8154,75.0039 C130.7744,71.3769 133.3774,70.0809 139.6234,72.6719 C145.8684,75.2639 153.4154,70.5989 156.2774,78.1139 C159.1404,85.6289 163.0434,93.1439 163.5644,88.4799 C164.0854,83.8149 161.4824,77.0769 161.4824,74.2269 C161.4824,71.5169 161.2604,69.2789 166.6064,69.0649" id="Fill-8" fill="#FFFFFF"></path>
                <path d="M132.3359,145.749 C135.9799,141.085 136.7709,137.981 136.1149,132.018 C135.6889,128.148 132.3359,125.537 132.3359,131.238 C132.3359,136.938 130.7739,139.27 128.9529,143.417 C127.1309,147.563 128.6919,150.413 132.3359,145.749" id="Fill-10" fill="#FFFFFF"></path>
                <g id="Group-14" transform="translate(53.000000, 169.375000)">
                    <mask id="mask-2" fill="white">
                        <use xlink:href="#path-1"></use>
                    </mask>
                    <g id="Clip-13"></g>
                    <path d="M45.5054,1.2524 C40.0404,1.5114 43.4234,1.2524 39.2604,1.5114 C35.0964,1.7694 34.8364,4.1014 28.3304,1.5114 C21.8244,-1.0796 13.2364,0.2144 6.9914,1.5114 C4.7564,1.9744 2.6914,2.1284 0.6824,2.0424 C10.3764,5.8724 20.9364,8.0004 32.0004,8.0004 C41.5424,8.0004 50.7064,6.4114 59.2694,3.5234 C55.9684,1.3914 50.2494,1.0264 45.5054,1.2524" id="Fill-12" fill="#FFFFFF" mask="url(#mask-2)"></path>
                </g>
                <path d="M114.6865,13.4097 C128.3005,28.4187 136.5945,48.3037 136.5945,70.1207 C136.5945,116.8657 98.5385,154.7617 51.5945,154.7617 C41.1495,154.7617 31.1505,152.8757 21.9075,149.4447 C37.4635,166.5937 59.9655,177.3747 84.9995,177.3747 C131.9445,177.3747 169.9995,139.4787 169.9995,92.7337 C169.9995,56.3887 146.9895,25.4027 114.6865,13.4097" id="Fill-15" fill-opacity="0.25" fill="#636466" style="mix-blend-mode: multiply;"></path>
                <path d="M94.7227,101.8066 C92.3167,101.8066 90.3667,99.8626 90.3677,97.4666 C90.3677,95.0706 92.3187,93.1286 94.7247,93.1296 C97.1317,93.1306 99.0817,95.0736 99.0807,97.4696 C99.0797,99.8656 97.1287,101.8076 94.7227,101.8066 M94.7267,87.4846 C89.4437,87.4836 85.1397,91.9846 85.1377,97.4616 C85.1357,104.9466 93.2217,112.7316 93.2217,112.7316 C94.3107,113.7366 94.9647,113.8176 96.1367,112.7326 C96.1367,112.7326 104.3077,104.9526 104.3097,97.4666 C104.3117,91.9906 100.0097,87.4866 94.7267,87.4846" id="Fill-17" fill="#FBCD33"></path>
                <path d="M95,87.4956 L95,93.1406 C97,93.2476 99.152,95.1416 99.151,97.4696 C99.151,99.7956 97,101.6886 95,101.7966 L95,113.4806 C95,113.4026 95.708,113.1626 96.172,112.7326 C96.172,112.7326 104.361,104.9526 104.363,97.4666 C104.365,92.0606 100,87.6116 95,87.4956" id="Fill-19" fill="#F89B00"></path>
                <path d="M9.7227,106.0386 C7.3167,106.0386 5.3667,104.0956 5.3677,101.6996 C5.3677,99.3036 7.3187,97.3616 9.7247,97.3616 C12.1317,97.3626 14.0817,99.3056 14.0807,101.7016 C14.0797,104.0976 12.1287,106.0396 9.7227,106.0386 M9.7267,91.7166 C4.4437,91.7156 0.1397,96.2166 0.1377,101.6936 C0.1357,109.1786 8.2217,116.9636 8.2217,116.9636 C9.3107,117.9686 9.9647,118.0496 11.1367,116.9646 C11.1367,116.9646 19.3077,109.1846 19.3097,101.6986 C19.3117,96.2226 15.0097,91.7186 9.7267,91.7166" id="Fill-21" fill="#FBCD33"></path>
                <path d="M10,91.7275 L10,97.3725 C12,97.4795 14.152,99.3735 14.151,101.7015 C14.151,104.0285 12,105.9215 10,106.0285 L10,117.7125 C10,117.6345 10.708,117.3945 11.172,116.9645 C11.172,116.9645 19.361,109.1845 19.363,101.6985 C19.365,96.2925 15,91.8435 10,91.7275" id="Fill-23" fill="#F89B00"></path>
                <path d="M34.1602,25.6289 C31.7542,25.6279 29.8042,23.6849 29.8052,21.2889 C29.8052,18.8929 31.7562,16.9509 34.1622,16.9519 C36.5692,16.9519 38.5192,18.8959 38.5182,21.2919 C38.5172,23.6879 36.5662,25.6289 34.1602,25.6289 M34.1642,11.3069 C28.8812,11.3049 24.5772,15.8069 24.5752,21.2829 C24.5732,28.7689 32.6592,36.5539 32.6592,36.5539 C33.7482,37.5579 34.4022,37.6399 35.5742,36.5539 C35.5742,36.5539 43.7452,28.7739 43.7472,21.2889 C43.7492,15.8119 39.4472,11.3079 34.1642,11.3069" id="Fill-25" fill="#FBCD33"></path>
                <path d="M34,11.3174 L34,16.9624 C36.125,17.0694 38.152,18.9634 38.151,21.2914 C38.151,23.6184 36.125,25.5114 34,25.6184 L34,37.3034 C34,37.2244 34.926,36.9844 35.391,36.5544 C35.391,36.5544 43.47,28.7744 43.472,21.2884 C43.474,15.8824 39.312,11.4334 34,11.3174" id="Fill-27" fill="#F89B00"></path>
                <path d="M83.0352,34.0928 C80.6292,34.0928 78.6792,32.1498 78.6802,29.7528 C78.6802,27.3578 80.6312,25.4158 83.0372,25.4158 C85.4442,25.4168 87.3942,27.3598 87.3932,29.7558 C87.3922,32.1518 85.4412,34.0938 83.0352,34.0928 M83.0392,19.7708 C77.7562,19.7698 73.4522,24.2708 73.4502,29.7478 C73.4482,37.2328 81.5342,45.0178 81.5342,45.0178 C82.6232,46.0228 83.2772,46.1038 84.4492,45.0188 C84.4492,45.0188 92.6202,37.2388 92.6222,29.7528 C92.6242,24.2768 88.3222,19.7728 83.0392,19.7708" id="Fill-29" fill="#FBCD33"></path>
                <path d="M83,19.7817 L83,25.4267 C85,25.5337 87.152,27.4277 87.151,29.7557 C87.151,32.0827 85,33.9747 83,34.0827 L83,45.7667 C83,45.6887 83.864,45.4487 84.328,45.0187 C84.328,45.0187 92.439,37.2387 92.441,29.7527 C92.443,24.3467 88,19.8977 83,19.7817" id="Fill-31" fill="#F89B00"></path>
                <path d="M128.7227,78.5303 C126.3167,78.5293 124.3667,76.5863 124.3677,74.1903 C124.3677,71.7943 126.3187,69.8523 128.7247,69.8533 C131.1317,69.8533 133.0817,71.7973 133.0807,74.1933 C133.0797,76.5893 131.1287,78.5303 128.7227,78.5303 M128.7267,64.2083 C123.4437,64.2063 119.1397,68.7083 119.1377,74.1843 C119.1357,81.6703 127.2217,89.4553 127.2217,89.4553 C128.3107,90.4593 128.9647,90.5413 130.1367,89.4553 C130.1367,89.4553 138.3077,81.6753 138.3097,74.1903 C138.3117,68.7133 134.0097,64.2093 128.7267,64.2083" id="Fill-33" fill="#FBCD33"></path>
                <path d="M129,64.2187 L129,69.8637 C131,69.9707 133.152,71.8647 133.151,74.1927 C133.151,76.5197 131,78.4127 129,78.5197 L129,90.2047 C129,90.1257 129.708,89.8857 130.172,89.4557 C130.172,89.4557 138.361,81.6757 138.363,74.1897 C138.365,68.7837 134,64.3347 129,64.2187" id="Fill-35" fill="#F89B00"></path>
                <path d="M154.2227,58.4277 C151.8167,58.4267 149.8667,56.4837 149.8677,54.0877 C149.8677,51.6917 151.8187,49.7497 154.2247,49.7507 C156.6317,49.7507 158.5817,51.6947 158.5807,54.0907 C158.5797,56.4867 156.6287,58.4277 154.2227,58.4277 M154.2267,44.1057 C148.9437,44.1037 144.6397,48.6057 144.6377,54.0817 C144.6357,61.5677 152.7217,69.3527 152.7217,69.3527 C153.8107,70.3567 154.4647,70.4387 155.6367,69.3537 C155.6367,69.3537 163.8077,61.5727 163.8097,54.0877 C163.8117,48.6107 159.5097,44.1067 154.2267,44.1057" id="Fill-37" fill="#FBCD33"></path>
                <path d="M154,44.1162 L154,49.7612 C156,49.8682 158.152,51.7622 158.151,54.0902 C158.151,56.4172 156,58.3102 154,58.4172 L154,70.1012 C154,70.0232 154.958,69.7832 155.422,69.3532 C155.422,69.3532 163.486,61.5732 163.488,54.0872 C163.49,48.6812 159,44.2322 154,44.1162" id="Fill-39" fill="#F89B00"></path>
                <path d="M56.8423,91.1182 C56.4343,91.1182 56.0223,90.9942 55.6673,90.7362 C54.7743,90.0862 54.5763,88.8352 55.2263,87.9422 C89.6343,40.6342 120.7073,45.6502 122.0123,45.8872 C123.0993,46.0842 123.8213,47.1242 123.6243,48.2112 C123.4283,49.2972 122.3883,50.0152 121.3053,49.8242 C120.9173,49.7582 91.2083,45.2692 58.4613,90.2942 C58.0703,90.8322 57.4603,91.1182 56.8423,91.1182" id="Fill-41" fill="#EC5824"></path>
                <path d="M129.4478,47.6772 C129.4478,49.3802 125.9598,50.7612 121.6558,50.7612 C117.3528,50.7612 113.8648,49.3802 113.8648,47.6772 C113.8648,45.9742 117.3528,44.5942 121.6558,44.5942 C125.9598,44.5942 129.4478,45.9742 129.4478,47.6772" id="Fill-43" fill="#EC5824"></path>
                <path d="M64.6353,88.9404 C64.6353,90.6434 61.1473,92.0234 56.8433,92.0234 C52.5403,92.0234 49.0523,90.6434 49.0523,88.9404 C49.0523,87.2374 52.5403,85.8574 56.8433,85.8574 C61.1473,85.8574 64.6353,87.2374 64.6353,88.9404" id="Fill-45" fill="#EC5824"></path>
                <g id="Group-49" transform="translate(104.000000, 0.375000)" fill="#FBCD33">
                    <path d="M17.2842,26.439 C12.9472,26.438 9.4322,22.936 9.4332,18.617 C9.4352,14.298 12.9512,10.798 17.2882,10.799 C21.6252,10.801 25.1402,14.302 25.1392,18.621 C25.1382,22.94 21.6212,26.44 17.2842,26.439 M17.2912,0.625 C7.7692,0.623 0.0122,8.735 0.0092,18.606 C0.0052,32.098 14.5792,46.129 14.5792,46.129 C16.5412,47.94 17.7202,48.087 19.8322,46.131 C19.8322,46.131 34.5602,32.108 34.5642,18.616 C34.5672,8.745 26.8142,0.628 17.2912,0.625" id="Fill-47"></path>
                </g>
                <path d="M121,1.0195 L121,11.1925 C125,11.3865 128.484,14.8015 128.483,18.9965 C128.482,23.1895 125,26.6015 121,26.7955 L121,47.8545 C122,47.7125 122.667,47.2805 123.504,46.5055 C123.504,46.5055 138.068,32.4825 138.072,18.9915 C138.075,9.2475 131,1.2275 121,1.0195" id="Fill-50" fill="#F89B00"></path>
                <path d="M56.4717,68.0771 C52.1347,68.0761 48.6197,64.5741 48.6207,60.2551 C48.6227,55.9361 52.1387,52.4361 56.4757,52.4371 C60.8127,52.4381 64.3277,55.9401 64.3267,60.2591 C64.3257,64.5781 60.8087,68.0781 56.4717,68.0771 M56.4787,42.2631 C46.9567,42.2611 39.1997,50.3731 39.1967,60.2441 C39.1927,73.7361 53.7667,87.7671 53.7667,87.7671 C55.7287,89.5781 56.9077,89.7251 59.0197,87.7691 C59.0197,87.7691 73.7477,73.7451 73.7517,60.2541 C73.7547,50.3831 66.0017,42.2661 56.4787,42.2631" id="Fill-52" fill="#FBCD33"></path>
                <path d="M56,42.2827 L56,52.4557 C61,52.6497 63.484,56.0637 63.483,60.2597 C63.482,64.4527 61,67.8647 56,68.0577 L56,89.1177 C57,88.9757 57.761,88.5437 58.598,87.7687 C58.598,87.7687 73.115,73.7457 73.119,60.2537 C73.122,50.5107 66,42.4907 56,42.2827" id="Fill-54" fill="#F89B00"></path>
            </g>
        </g>
    </g>
</svg>