<?xml version="1.0" encoding="UTF-8"?>
<svg width="230px" height="147px" viewBox="0 0 230 147" version="1.1" xmlns="http://www.w3.org/2000/svg" xmlns:xlink="http://www.w3.org/1999/xlink">
    <!-- Generator: Sketch 41.2 (35397) - http://www.bohemiancoding.com/sketch -->
    <title>hiw_book-online</title>
    <desc>Created with Sketch.</desc>
    <defs>
        <polygon id="path-1" points="0 146.364 230 146.364 230 0 0 0"></polygon>
    </defs>
    <g id="Page-1" stroke="none" stroke-width="1" fill="none" fill-rule="evenodd">
        <g id="home" transform="translate(-235.000000, -21.000000)">
            <g id="hiw_book-online" transform="translate(235.000000, 21.500000)">
                <path d="M227.7578,141.3365 C227.7578,144.1155 176.7728,146.3635 113.8778,146.3635 C50.9858,146.3635 -0.0002,144.1155 -0.0002,141.3365 C-0.0002,138.5615 50.9858,136.3145 113.8778,136.3145 C176.7728,136.3145 227.7578,138.5615 227.7578,141.3365" id="Fill-1" fill="#636466" opacity="0.25"></path>
                <path d="M210.502,124.0923 C210.502,128.4263 206.956,131.9713 202.623,131.9713 L27.377,131.9713 C23.044,131.9713 19.498,128.4263 19.498,124.0923 L19.498,7.8793 C19.498,3.5463 23.044,0.0003 27.377,0.0003 L202.623,0.0003 C206.956,0.0003 210.502,3.5463 210.502,7.8793 L210.502,124.0923 Z" id="Fill-4" fill="#636466"></path>
                <path d="M117.3877,5.9991 C117.3877,7.3251 116.3187,8.3981 114.9997,8.3981 C113.6817,8.3981 112.6127,7.3251 112.6127,5.9991 C112.6127,4.6731 113.6817,3.6001 114.9997,3.6001 C116.3187,3.6001 117.3877,4.6731 117.3877,5.9991" id="Fill-6" fill="#404040"></path>
                <mask id="mask-2" fill="white">
                    <use xlink:href="#path-1"></use>
                </mask>
                <g id="Clip-9"></g>
                <polygon id="Fill-8" fill="#FBCD33" mask="url(#mask-2)" points="30 119.182 199 119.182 199 12.182 30 12.182"></polygon>
                <polygon id="Fill-10" fill="#FBCD33" mask="url(#mask-2)" points="39 113.182 190 113.182 190 20.182 39 20.182"></polygon>
                <path d="M220.4502,131.8824 L210.8992,131.8824 L19.1002,131.8824 L9.5502,131.8824 L0.0002,131.8824 C0.0002,136.0324 4.2752,140.1824 9.5502,140.1824 L220.4502,140.1824 C225.7262,140.1824 230.0002,136.0324 230.0002,131.8824 L220.4502,131.8824 Z" id="Fill-11" fill="#636466" mask="url(#mask-2)"></path>
                <path d="M113.9727,131.8824 L113.2597,131.8824 L85.1557,131.8824 C85.1557,133.3654 86.7147,136.6814 89.8677,136.6814 L113.2597,136.6814 L113.9727,136.6814 L140.1307,136.6814 C143.2847,136.6814 144.8447,133.3654 144.8447,131.8824 L113.9727,131.8824 Z" id="Fill-12" fill="#404040" mask="url(#mask-2)"></path>
                <path d="M193,71.5196 C193,74.1696 190.882,76.1826 188.244,76.1826 L43.836,76.1826 C41.199,76.1826 39,74.1696 39,71.5196 L39,54.9806 C39,52.3306 41.199,50.1826 43.836,50.1826 L188.244,50.1826 C190.882,50.1826 193,52.3306 193,54.9806 L193,71.5196 Z" id="Fill-13" fill="#FFFFFF" mask="url(#mask-2)"></path>
                <path d="M193,41.2012 C193,43.8512 190.882,46.1822 188.244,46.1822 L43.836,46.1822 C41.199,46.1822 39,43.8512 39,41.2012 L39,24.6632 C39,22.0132 41.199,20.1822 43.836,20.1822 L188.244,20.1822 C190.882,20.1822 193,22.0132 193,24.6632 L193,41.2012 Z" id="Fill-14" fill="#FFFFFF" mask="url(#mask-2)"></path>
                <path d="M193,108.1104 C193,110.7604 190.882,113.1824 188.244,113.1824 L43.836,113.1824 C41.199,113.1824 39,110.7604 39,108.1104 L39,87.3904 C39,84.7394 41.199,82.1824 43.836,82.1824 L188.244,82.1824 C190.882,82.1824 193,84.7394 193,87.3904 L193,108.1104 Z" id="Fill-15" fill="#EC5824" mask="url(#mask-2)"></path>
                <path d="M186.1787,121.1729 L179.4277,114.3889 L185.6027,108.1829 C186.5317,107.2499 186.2517,106.2119 184.9817,105.8769 L157.5237,98.6129 C156.2527,98.2779 155.4887,99.0469 155.8217,100.3229 L163.0477,127.9199 C163.3817,129.1959 164.4157,129.4769 165.3437,128.5439 L171.5187,122.3379 L178.2687,129.1209 C179.1977,130.0539 180.7167,130.0539 181.6447,129.1209 L186.1787,124.5659 C187.1067,123.6329 187.1067,122.1059 186.1787,121.1729" id="Fill-16" fill="#FFFFFF" mask="url(#mask-2)"></path>
                <path d="M178.2686,129.1212 C179.1976,130.0542 180.7166,130.0542 181.6446,129.1212 L184.0386,126.7162 L156.2176,98.7572 C155.8066,99.0452 155.6316,99.5982 155.8216,100.3232 L163.0476,127.9202 C163.3816,129.1962 164.4156,129.4762 165.3436,128.5432 L171.5186,122.3372 L178.2686,129.1212 Z" id="Fill-17" fill-opacity="0.15" fill="#636466" mask="url(#mask-2)"></path>
                <path d="M119.2998,106.5606 C119.2998,105.3676 120.2628,104.4006 121.4488,104.4006 C122.6358,104.4006 123.5978,105.3676 123.5978,106.5606 C123.5978,107.7536 122.6358,108.7206 121.4488,108.7206 C120.2628,108.7206 119.2998,107.7536 119.2998,106.5606 M109.2708,106.5606 C109.2708,105.3676 110.2328,104.4006 111.4198,104.4006 C112.6068,104.4006 113.5688,105.3676 113.5688,106.5606 C113.5688,107.7536 112.6068,108.7206 111.4198,108.7206 C110.2328,108.7206 109.2708,107.7536 109.2708,106.5606 M125.0088,91.6656 L123.5748,100.6656 C123.4638,101.2506 123.0608,101.7006 122.5008,101.8576 C122.2988,101.9036 117.9558,102.9606 111.0388,102.9606 C110.3448,102.9606 109.7408,102.4656 109.6298,101.7686 C109.6068,101.7006 108.4428,94.7486 107.9048,91.0146 C107.8598,90.6766 107.6358,90.1826 107.1218,90.1826 L105.6888,90.1826 C104.9048,90.1826 104.2558,89.4696 104.2558,88.6826 C104.2558,87.8946 104.9048,87.1826 105.6888,87.1826 L107.1218,87.1826 C108.7998,87.1826 110.2108,88.1826 110.6358,90.1826 L123.5978,90.1826 C124.0238,90.1826 124.4038,90.2946 124.6948,90.6086 C124.9638,90.9246 125.0758,91.2616 125.0088,91.6656" id="Fill-18" fill="#FFFFFF" mask="url(#mask-2)"></path>
                <path d="M52.9229,33.357 C51.1649,33.356 49.7399,31.923 49.7399,30.156 C49.7409,28.39 51.1669,26.958 52.9239,26.958 C54.6829,26.959 56.1079,28.391 56.1069,30.158 C56.1069,31.925 54.6809,33.357 52.9229,33.357 M52.9259,22.795 C49.0659,22.794 45.9209,26.114 45.9199,30.152 C45.9179,35.672 51.8259,41.413 51.8259,41.413 C52.6219,42.154 53.0989,42.214 53.9559,41.414 C53.9559,41.414 59.9259,35.676 59.9279,30.156 C59.9289,26.118 56.7859,22.796 52.9259,22.795" id="Fill-19" fill="#636466" mask="url(#mask-2)"></path>
                <g id="Group-23" mask="url(#mask-2)" fill="#636466">
                    <g transform="translate(43.000000, 53.364000)">
                        <path d="M9.9238,16.7894 C6.3148,16.7894 3.3888,13.8494 3.3888,10.2224 C3.3888,6.5964 6.3148,3.6554 9.9238,3.6554 C13.5318,3.6554 16.4578,6.5964 16.4578,10.2224 C16.4578,13.8494 13.5318,16.7894 9.9238,16.7894 M9.9238,0.6244 C4.6498,0.6244 0.3738,4.9214 0.3738,10.2224 C0.3738,15.5234 4.6498,19.8204 9.9238,19.8204 C15.1978,19.8204 19.4738,15.5234 19.4738,10.2224 C19.4738,4.9214 15.1978,0.6244 9.9238,0.6244" id="Fill-20"></path>
                        <path d="M8,6.6234 C8,5.9604 8.341,5.4234 9,5.4234 C9.659,5.4234 10,5.9604 10,6.6234 L10,10.2224 C10,10.8854 9.659,11.4224 9,11.4224 C8.341,11.4224 8,10.8854 8,10.2224 L8,6.6234 Z" id="Fill-21"></path>
                        <path d="M12.8037,12.6707 C13.2157,13.0847 13.2157,13.7547 12.8037,14.1677 C12.3927,14.5817 11.7257,14.5817 11.3137,14.1677 L9.0797,11.9217 C8.6677,11.5087 8.6677,10.8377 9.0797,10.4247 C9.4907,10.0117 10.1577,10.0117 10.5697,10.4247 L12.8037,12.6707 Z" id="Fill-22"></path>
                    </g>
                </g>
            </g>
        </g>
    </g>
</svg>