<svg width="64" height="64" viewBox="0 0 64 64" xmlns="http://www.w3.org/2000/svg"><title>seat-booster</title><g stroke-width="2" fill="none" fill-rule="evenodd" stroke-linecap="round" stroke-linejoin="round"><path d="M22 48l-8.88 8.88c-1.17 1.17-3.28 1.424-4.693.576l1.005.603c-1.896-1.137-2.255-3.417-.817-5.076l9.079-10.476c.721-.832 2.2-1.507 3.31-1.507H24" stroke="#888"/><path d="M44 31l-3.878 7.756c-.62 1.24-2.248 2.244-3.644 2.244H23.993a3 3 0 0 1 .01-6H35l4.024-7.243c.54-.97 1.802-2.087 2.838-2.502L45 24s-10.05-2-8-9c1.936-7 5.922-10 10-10 3.894 0 8.063 2.512 9 7 .872 5.5-4.357 11.23-4.357 11.23-.355.426-.742 1.215-.858 1.738L47 42" stroke="#888"/><path d="M41 50H26.993c-3.862 0-6.313 3.06-5.475 6.833l.048.214C21.806 58.126 22.89 59 24.004 59h20.992c1.107 0 2.248-.855 2.552-1.917l2.354-8.239C50.508 46.721 49.21 45 47 45H31.995c-1.102 0-2.325.826-2.74 1.862L28 50" stroke="#444"/></g></svg>