<svg width="64" height="64" viewBox="0 0 64 64" xmlns="http://www.w3.org/2000/svg"><title>seat-chair</title><g stroke-width="2" fill="none" fill-rule="evenodd" stroke-linecap="round" stroke-linejoin="round"><path d="M16.004 59H40.01c2.204 0 4.565-1.692 5.275-3.779l13.142-38.654C59.848 12.387 57.41 9 53 9h-4.004c-2.207 0-4.796 1.6-5.785 3.579l-.422.842c-.988 1.977-.99 5.179 0 7.158L45 25h-4.994c-1.108 0-2.326.833-2.722 1.863l-3.568 9.274c-.395 1.03-.085 2.494.698 3.277L39 44H27.006c-1.108 0-2.288.847-2.639 1.898l-.1.302c-.7 2.099-3.059 3.8-5.27 3.8h-3.991c-1.66 0-3.554 1.233-4.228 2.75l.065-.147C9.273 56.136 11.137 59 14.998 59h1.006z" stroke="#444"/><path d="M18 45h-2.001c-.552 0-1.395.227-1.871.499l-3.521 2.012a3.085 3.085 0 0 1-4.15-1.084l.087.146c-.853-1.42-.338-3.176 1.136-3.913l5.532-2.766C14.2 39.4 15.9 39 16.992 39H26l3-6-6.022-.753c-1.093-.136-2.46-1.003-3.056-1.942l-4.844-7.61c-.595-.936-.363-2.231.526-2.898a2.806 2.806 0 0 1 4.06.698L24 27h8s-6.821-5.024-4-9c3.202-5.103 2.198-8.634 12-6" stroke="#888"/><path d="M27 50h6.998c2.21 0 4.582-1.694 5.296-3.783L51 12" stroke="#444"/></g></svg>