<?xml version="1.0" encoding="UTF-8"?>
<svg width="120px" height="120px" viewBox="0 0 120 120" version="1.1" xmlns="http://www.w3.org/2000/svg" xmlns:xlink="http://www.w3.org/1999/xlink">
    <!-- Generator: Sketch 41.2 (35397) - http://www.bohemiancoding.com/sketch -->
    <title>stats_airports</title>
    <desc>Created with Sketch.</desc>
    <defs>
        <linearGradient x1="50%" y1="0%" x2="50%" y2="100%" id="linearGradient-1">
            <stop stop-color="#FFD000" offset="0%"></stop>
            <stop stop-color="#FFB300" offset="100%"></stop>
        </linearGradient>
    </defs>
    <g id="Page-1" stroke="none" stroke-width="1" fill="none" fill-rule="evenodd">
        <g id="home" transform="translate(-260.000000, -200.000000)" fill="url(#linearGradient-1)">
            <g id="airports" transform="translate(260.000000, 200.000000)">
                <path d="M116.532108,9.56334571 C116.230935,12.6484545 115.426376,15.2688607 114.127033,17.4288671 C112.82769,19.6060848 111.696143,21.2970858 110.740997,22.5061731 C109.790154,23.7238659 108.748959,25.0792484 107.630319,26.5378982 L99.6836773,35.2639799 L101.783277,49.7256963 C103.814038,48.1121457 106.735408,48.1637793 108.615583,50.035498 C110.633436,52.053512 110.633436,55.3236412 108.615583,57.3416552 L103.616125,62.3415107 L105.246757,73.593337 L108.181034,70.6502207 C110.198888,68.6365095 113.468757,68.6365095 115.48661,70.6502207 C117.504463,72.6768402 117.504463,75.9383639 115.48661,77.9563779 L109.897715,83.5371116 C109.063038,84.3847635 107.991726,84.7892269 106.894599,84.9312193 L109.144785,100.477242 C109.837481,106.199968 109.011409,110.235996 106.675174,112.572417 L102.252245,117 L80.2193519,54.5577425 L50.1064399,80.5036364 L49.6891014,101.983222 L41.2132567,110.459741 L34.1443162,82.1042787 L6.87532981,76.1492012 L15.3554769,67.6683791 L37.4227902,67.8275828 L63.3709216,37.7079713 L0,14.7396161 L4.42292806,10.3120332 C6.76346587,7.9756119 10.7991726,7.15377679 16.5214433,7.84222505 L31.8683153,10.2216744 C32.1221604,9.55474011 32.4878695,8.92653107 33.0256769,8.38007526 L38.6145714,2.79073592 C40.6195174,0.772721947 43.8979913,0.772721947 45.9158446,2.79073592 C47.9250931,4.80874989 47.9250931,8.07457634 45.9158446,10.0925903 L43.9152011,12.0933931 L55.0671754,13.8231193 L60.0838428,8.81465822 C62.1016962,6.80094705 65.3672627,6.80094705 67.3851161,8.81465822 C69.2997104,10.7337078 69.3341301,13.7499717 67.6045415,15.7722885 L81.1529855,17.8849641 L90.4462974,9.36971964 C101.641296,-0.0835355803 109.669685,-2.38553446 114.522859,2.4723286 C116.170701,4.12030163 116.837582,6.47823693 116.532108,9.56334571" id="Imported-Layers"></path>
            </g>
        </g>
    </g>
</svg>