<?xml version="1.0" encoding="UTF-8"?>
<svg width="120px" height="120px" viewBox="0 0 120 120" version="1.1" xmlns="http://www.w3.org/2000/svg" xmlns:xlink="http://www.w3.org/1999/xlink">
    <!-- Generator: Sketch 41.2 (35397) - http://www.bohemiancoding.com/sketch -->
    <title>stats_transfers</title>
    <desc>Created with Sketch.</desc>
    <defs>
        <linearGradient x1="50%" y1="0%" x2="50%" y2="100%" id="linearGradient-1">
            <stop stop-color="#FFD000" offset="0%"></stop>
            <stop stop-color="#FFB300" offset="100%"></stop>
        </linearGradient>
    </defs>
    <g id="Page-1" stroke="none" stroke-width="1" fill="none" fill-rule="evenodd">
        <g id="home" transform="translate(-130.000000, -200.000000)" fill="url(#linearGradient-1)">
            <g id="transfers" transform="translate(130.000000, 200.000000)">
                <path d="M28.5720169,10 L91.4279831,10 L120,110 L0,110 L28.5720169,10 Z M64,23 L64,14 L56,14 L56,23 L64,23 Z M64,44 L64,32 L56,32 L56,44 L64,44 Z M64,69 L64,52 L56,52 L56,69 L64,69 Z M64,101 L64,77 L56,77 L56,101 L64,101 Z" id="Imported-Layers"></path>
            </g>
        </g>
    </g>
</svg>