<?xml version="1.0" encoding="UTF-8"?>
<svg width="120px" height="120px" viewBox="0 0 120 120" version="1.1" xmlns="http://www.w3.org/2000/svg" xmlns:xlink="http://www.w3.org/1999/xlink">
    <!-- Generator: Sketch 41.2 (35397) - http://www.bohemiancoding.com/sketch -->
    <title>stats_miles</title>
    <desc>Created with Sketch.</desc>
    <defs>
        <linearGradient x1="50%" y1="0%" x2="50%" y2="100%" id="linearGradient-1">
            <stop stop-color="#FFD000" offset="0%"></stop>
            <stop stop-color="#FFB300" offset="100%"></stop>
        </linearGradient>
    </defs>
    <g id="Page-1" stroke="none" stroke-width="1" fill="none" fill-rule="evenodd">
        <g id="home" transform="translate(0.000000, -200.000000)" fill="url(#linearGradient-1)">
            <g id="miles" transform="translate(0.000000, 200.000000)">
                <path d="M22,46 C21.9549293,46 33.0422435,30.4619916 35,27 C37.1612845,24.0250367 37.9960664,21.283941 38,18 C38.011743,9.05680658 30.8553501,2.01157483 22,2 C13.1877602,1.98462585 6.00785225,9.01060834 6,18 C5.99609476,21.2377428 6.81911914,23.9826883 9,27 C10.9224835,30.4273429 21.9549293,46 22,46 L22,46 Z M22,10 C26.428848,10.0037711 30.0080026,13.367584 30,18 C29.9919705,21.6549667 26.4048,25.0075043 22,25 C17.5711419,24.9962289 13.9959954,21.632416 14,17 C14.0080194,13.3450333 17.59519,9.99249572 22,10 L22,10 Z M99,74 C90.1829952,73.9846258 83.0118115,81.0144582 83,90 C82.9922181,93.2415926 83.8151408,95.9826883 86,99 C87.9179984,102.431193 98.9530003,118 99,118 C98.9530003,118 110.038945,102.461992 112,99 C114.157477,96.0288865 114.988238,93.283941 115,90 C115.007831,81.0568066 107.856241,74.0115748 99,74 L99,74 Z M99,97 C94.5702584,96.9962299 90.9919994,93.6332596 91,89 C91.0080275,85.3479529 94.5943004,81.9924976 99,82 C103.429755,82.0037701 107,85.3667404 107,90 C106.991986,93.6520471 103.405713,97.0075024 99,97 L99,97 Z M33,92 C27.9929456,91.5071005 23.6760592,87.238833 24,82 C23.6760592,76.7392059 27.9929456,72.4709384 33,72 L77,72 C91.756383,72.4709384 104,60.35419 104,45 C104,30.5696131 91.756383,18.4489773 77,18 L64,18 L64,15 C63.7339372,13.5976132 63.1368792,12.6724332 62,12 C61.271073,11.8133375 60.1673013,11.9610553 59,13 L42,27 L59,42 C60.1673013,42.429799 61.271073,42.5775168 62,42 C63.1368792,41.718421 63.7339372,40.793241 64,40 L64,36 L77,36 C82.0109824,35.9418769 86.3239408,40.2140317 86,45 C86.3239408,50.7097714 82.0109824,54.9780389 77,55 L33,55 C18.243617,54.9780389 6,67.0986746 6,82 C6,96.8832516 18.243617,109 33,109 L84,109 C81.9127821,106.609304 80.5261934,104.560691 80,104 C77.403423,99.6121439 76.2368031,95.8375649 76,92 L33,92 Z" id="Imported-Layers"></path>
            </g>
        </g>
    </g>
</svg>