<?xml version="1.0" encoding="UTF-8"?>
<svg width="120px" height="120px" viewBox="0 0 120 120" version="1.1" xmlns="http://www.w3.org/2000/svg" xmlns:xlink="http://www.w3.org/1999/xlink">
    <!-- Generator: Sketch 41.2 (35397) - http://www.bohemiancoding.com/sketch -->
    <title>stats_countries</title>
    <desc>Created with Sketch.</desc>
    <defs>
        <linearGradient x1="50%" y1="0%" x2="50%" y2="100%" id="linearGradient-1">
            <stop stop-color="#FFD000" offset="0%"></stop>
            <stop stop-color="#FFB300" offset="100%"></stop>
        </linearGradient>
    </defs>
    <g id="Page-1" stroke="none" stroke-width="1" fill="none" fill-rule="evenodd">
        <g id="home" transform="translate(-390.000000, -200.000000)" fill="url(#linearGradient-1)">
            <g id="countries" transform="translate(390.000000, 200.000000)">
                <path d="M118.191042,34.7689772 C116.960469,31.6077836 113.987527,27.3714056 106.818596,25.1642489 C105.682104,24.8159497 104.440242,25.0279579 103.476858,25.7396997 C102.521001,26.4552274 101.952755,27.5834138 101.952755,28.7835316 L101.952755,51.3321172 C98.9647599,51.9264973 95.5741003,51.9264973 92.273758,51.9264973 L88.1680869,51.9264973 C86.8848295,53.8800013 85.1311699,56.4884593 83.0877424,59.4982184 L92.273758,59.4982184 C95.344544,59.4982184 98.6825185,59.4982184 101.952755,59.0136283 L101.952755,82.2853132 C101.952755,83.947306 103.032799,85.4162199 104.617114,85.9045959 C108.064221,86.9646369 110.269467,88.6872034 111.180166,91.0268653 C112.241394,93.7716142 111.451118,97.1864604 110.19044,99.3595444 C106.908913,105.008048 100.966792,105.428279 92.273758,105.428279 L26.7260237,105.428279 C18.0329898,105.428279 12.087105,105.008048 8.809342,99.3595444 C7.55242712,97.1864604 6.75838809,93.7716142 7.81961562,91.0268653 C8.73031441,88.6872034 10.9393235,86.9646369 14.3864313,85.9045959 C15.966983,85.4162199 17.0470266,83.947306 17.0470266,82.2853132 L17.0470266,59.0136283 C20.3210264,59.4982184 23.6552377,59.4982184 26.7260237,59.4982184 L35.8744071,59.4982184 C33.8497958,56.4922451 32.111189,53.8913589 30.8279316,51.9264973 L26.7260237,51.9264973 C23.4256814,51.9264973 20.038785,51.9264973 17.0470266,51.3321172 L17.0470266,28.7835316 C17.0470266,27.5834138 16.4825439,26.4552274 15.5229232,25.7396997 C14.5633026,25.0279579 13.3252038,24.8159497 12.1849487,25.1642489 C5.01225485,27.3714056 2.03931249,31.6077836 0.812503367,34.7689772 C-0.297645995,37.6273019 0.0523332953,40.0729678 0.0523332953,43.2795917 L0.0523332953,91.1480128 C0.0523332953,96.4179307 0.571657404,100.173504 2.3102642,103.175692 C8.01153974,113 18.3904955,113 26.7260237,113 L92.273758,113 C100.609286,113 110.988242,113 116.689518,103.175692 C118.431888,100.173504 118.947448,97.7354102 118.947448,91.1442269 L118.947448,43.2833776 C118.947448,40.4704832 119.297428,37.6310878 118.191042,34.7689772 L118.191042,34.7689772 Z M59.4246297,79 C59.4246297,79 77.7884445,52.8648968 81.1989211,47.4521903 C84.6093977,42.0432426 85.9924307,37.4311656 85.9999677,31.4696707 C86.0225786,16.8703984 74.1707014,5.02258516 59.5414526,5.00003222 C44.9008984,4.97747927 33.0226419,16.7989807 33.000031,31.3944942 C32.992494,37.3559891 34.3604531,41.9718249 37.7520873,47.3882903 C41.1512584,52.8085145 59.4246297,79 59.4246297,79 L59.4246297,79 Z M59.0189063,19.0000166 C66.1995254,19.0075802 72.0113272,24.8391364 71.9999834,32.0208 C71.9848584,39.1986817 66.1617128,45.0113289 58.9810937,44.9999834 C51.8042558,44.9924198 45.9886728,39.1646454 46.0000166,31.9829818 C46.0113604,24.8013183 51.8382872,18.9886711 59.0189063,19.0000166 L59.0189063,19.0000166 Z" id="Imported-Layers"></path>
            </g>
        </g>
    </g>
</svg>