<svg width="72" height="32" viewBox="0 0 72 32" xmlns="http://www.w3.org/2000/svg"><title>vehicle-van</title><g stroke="#444" stroke-width="2" fill="none" fill-rule="evenodd" stroke-linecap="round" stroke-linejoin="round"><circle cx="14" cy="25" r="4"/><circle cx="58" cy="25" r="4"/><path d="M63 26l4.002-.334C68.106 25.575 69 24.604 69 23.5V22c0-1.105-.539-2.706-1.276-3.533 0 0-.709-1.468-4.679-3.468s-8.932-3-8.932-3l-7.406-4.117C42.849 5.738 36.143 4 31.725 4H7.987c-1.11 0-2.284.857-2.609 1.906C5.378 5.906 3 13 3 17v5c0 1.105.85 2.261 1.915 2.59L9.5 26M19 26h34"/><path d="M7 11l2.601.975c.773.29 2.076.551 2.904.583L50 14M34 7v6-1zM19 7v5.5-1z"/></g></svg>