<svg width="72" height="32" viewBox="0 0 72 32" xmlns="http://www.w3.org/2000/svg"><title>vehicle-sedan</title><g stroke="#444" stroke-width="2" fill="none" fill-rule="evenodd" stroke-linecap="round" stroke-linejoin="round"><path d="M16 29a4 4 0 1 0 0-8 4 4 0 0 0 0 8z"/><circle cx="56" cy="25" r="4"/><path d="M61 26l5.013-.716c1.097-.157 1.98-1.174 1.934-2.278 0 0 .126-3.006-.947-4.006-.94-1-3.094-2.293-6-3-2.853-.707-8.027-1.455-9-1-4.06-2.455-6.073-7-20-7-9.522 0-18.174 4.202-18.174 4.202-1.009.44-2.724.798-3.824.798H6.991c-.547 0-1.077.43-1.186.977L4.39 21.048c-.215 1.078.44 2.308 1.45 2.74L11 26M21 26h30"/><path d="M16 14s1 1 3 1.5L50 17M34 11v5-1z"/></g></svg>