<svg width="64" height="32" viewBox="0 0 64 32" xmlns="http://www.w3.org/2000/svg"><title>vehicle-suv</title><g stroke="#444" stroke-width="2" fill="none" fill-rule="evenodd" stroke-linecap="round" stroke-linejoin="round"><circle cx="17" cy="24" r="5"/><circle cx="47" cy="24" r="5"/><path d="M53 25h4.994A1.998 1.998 0 0 0 60 23v-6c0-1.105-.886-2.127-1.976-2.282L46 13l-5.852-8.36C39.514 3.734 38.102 3 37.008 3H10.992c-1.1 0-2.17.887-2.382 1.952L7 13H4.999a.998.998 0 0 0-.999.998v7.004c0 .551.443.998.999.998H7l.367 1.1C7.717 24.15 8.9 25 10 25H11M23 25h18M10 13h32M28 6v7-1z"/></g></svg>