<?xml version="1.0" encoding="UTF-8"?>
<svg width="420px" height="90px" viewBox="0 0 420 90" version="1.1" xmlns="http://www.w3.org/2000/svg" xmlns:xlink="http://www.w3.org/1999/xlink">
    <!-- Generator: Sketch 41.2 (35397) - http://www.bohemiancoding.com/sketch -->
    <title>kiwitaxi_logo</title>
    <desc>Created with Sketch.</desc>
    <defs></defs>
    <g id="kiwitaxi" stroke="none" stroke-width="1" fill="none" fill-rule="evenodd">
        <g id="kiwitaxi_logo">
            <g id="Group" transform="translate(2.000000, 3.000000)">
                <path d="M133.8414,48.4561 L146.4114,34.8401 C147.0774,33.9821 147.5524,32.8401 147.5524,31.7921 C147.5524,29.2211 145.2674,26.9361 142.6984,26.9361 C141.4594,26.9361 140.2214,27.5081 139.3644,28.4601 L120.2244,49.5981 L120.2244,14.4631 C120.2244,11.7961 117.9404,9.5111 115.2744,9.5111 C112.2274,9.5111 110.0374,11.7961 110.0374,14.4631 L110.0374,69.1191 C110.0374,71.8801 112.2274,74.1651 115.0834,74.1651 C117.9404,74.1651 120.2244,71.8801 120.2244,69.1191 L120.2244,61.3111 L126.5094,54.7411 L139.2694,72.0711 C140.2214,73.4991 141.8414,74.1651 143.4594,74.1651 C146.5064,74.1651 148.5054,71.4991 148.5054,69.0231 C148.5054,68.0711 148.1254,67.0241 147.5524,66.1671 L133.8414,48.4561 Z M165.2682,9.5111 C161.8402,9.5111 158.9832,12.2721 158.9832,15.7001 C158.9832,19.2241 161.8402,21.9851 165.2682,21.9851 C168.6952,21.9851 171.5532,19.2241 171.5532,15.7001 C171.5532,12.2721 168.6952,9.5111 165.2682,9.5111 Z M165.459,27.0316 C162.412,27.0316 160.222,29.3176 160.222,31.9826 L160.222,69.1196 C160.222,71.8806 162.412,74.1646 165.269,74.1646 C168.124,74.1646 170.41,71.8806 170.41,69.1196 L170.41,31.9826 C170.41,29.3176 168.124,27.0316 165.459,27.0316 Z M241.7314,27.0316 C239.5414,27.0316 237.4464,28.4596 236.8744,30.5556 L228.1144,60.7396 L218.4014,31.0306 C217.5454,28.6506 215.3544,27.0316 212.8804,27.0316 C210.1184,27.0316 207.9284,28.6506 207.1664,31.0306 L197.4534,60.7396 L188.6934,30.5556 C188.1224,28.4596 186.0284,27.0316 183.8384,27.0316 C180.7914,27.0316 178.7904,29.5076 178.7904,31.8886 C178.7904,32.3636 178.8864,32.8396 178.9824,33.3166 L190.2174,69.3096 C191.0744,72.1666 193.7404,74.1646 196.6924,74.1646 L196.8824,74.1646 C199.9304,74.1646 202.6914,72.1666 203.5484,69.3096 L212.7854,40.0766 L222.0214,69.3096 C222.8764,72.1666 225.5444,74.1646 228.5904,74.1646 L228.7814,74.1646 C231.7334,74.1646 234.4934,72.1666 235.3514,69.3096 L246.4924,33.3166 C246.6824,32.8396 246.7774,32.3636 246.7774,31.8886 C246.7774,29.3176 244.6834,27.0316 241.7314,27.0316 Z M260.3052,9.5111 C256.8772,9.5111 254.0202,12.2721 254.0202,15.7001 C254.0202,19.2241 256.8772,21.9851 260.3052,21.9851 C263.7322,21.9851 266.5902,19.2241 266.5902,15.7001 C266.5902,12.2721 263.7322,9.5111 260.3052,9.5111 Z M260.496,27.0316 C257.449,27.0316 255.258,29.3176 255.258,31.9826 L255.258,69.1196 C255.258,71.8806 257.449,74.1646 260.306,74.1646 C263.161,74.1646 265.447,71.8806 265.447,69.1196 L265.447,31.9826 C265.447,29.3176 263.161,27.0316 260.496,27.0316 Z M298.125,65.4056 C297.554,65.4056 296.697,65.6906 296.031,65.6906 C293.649,65.6906 291.651,63.7866 291.651,60.2626 L291.651,36.5536 L297.268,36.5536 C299.648,36.5536 301.552,34.5546 301.552,32.1736 C301.552,29.6026 299.648,27.6036 297.268,27.6036 L291.651,27.6036 L291.651,14.5576 C291.651,11.7966 289.46,9.5116 286.698,9.5116 C283.747,9.5116 281.461,11.7966 281.461,14.5576 L281.461,27.6036 L277.653,27.6036 C275.272,27.6036 273.273,29.6026 273.273,31.9836 C273.273,34.5546 275.272,36.5536 277.653,36.5536 L281.461,36.5536 L281.461,62.8336 C281.461,70.5476 285.556,74.7366 293.364,74.7366 C299.84,74.7366 302.6,72.8326 302.6,69.7856 C302.6,67.3096 300.886,65.4056 298.125,65.4056 Z M383.2835,49.9797 L394.4235,34.3637 C394.9945,33.5067 395.2815,32.6497 395.2815,31.6967 C395.2815,29.3167 393.1865,27.1267 390.5195,27.1267 C388.9005,27.1267 387.4735,27.8887 386.5205,29.2207 L376.9985,43.0287 L367.1915,29.1267 C366.2385,27.7937 364.8105,27.1267 363.2875,27.1267 C360.4305,27.1267 358.5255,29.5077 358.5255,31.7927 C358.5255,32.6497 358.8115,33.5067 359.3825,34.3637 L370.5235,49.9797 L358.4305,66.9297 C357.8595,67.6907 357.5735,68.6427 357.5735,69.4997 C357.5735,72.0697 359.7635,74.1657 362.3345,74.1657 C363.7625,74.1657 365.0965,73.5947 366.0485,72.2617 L376.9985,56.8357 L387.7595,72.2617 C388.6155,73.5947 390.0435,74.1657 391.5665,74.1657 C394.4235,74.1657 396.2335,71.7847 396.2335,69.4997 C396.2335,68.6427 396.0425,67.6907 395.4715,66.9297 L383.2835,49.9797 Z M409.8219,21.9854 C413.2489,21.9854 416.1069,19.2244 416.1069,15.7004 C416.1069,12.2724 413.2489,9.5114 409.8219,9.5114 C406.3939,9.5114 403.5369,12.2724 403.5369,15.7004 C403.5369,19.2244 406.3939,21.9854 409.8219,21.9854 Z M410.0127,27.0316 C406.9657,27.0316 404.7747,29.3176 404.7747,31.9826 L404.7747,69.1196 C404.7747,71.8806 406.9657,74.1646 409.8227,74.1646 C412.6777,74.1646 414.9637,71.8806 414.9637,69.1196 L414.9637,31.9826 C414.9637,29.3176 412.6777,27.0316 410.0127,27.0316 Z M344.5526,27.032 C341.5056,27.032 339.3136,29.317 339.3136,31.983 L339.3136,32.554 C336.4406,28.997 332.4606,26.46 326.9236,26.46 C313.8516,26.46 307.1776,37.41 307.1776,50.55 L307.1776,50.647 C307.1776,63.787 313.8516,74.737 326.9236,74.737 C332.4656,74.737 336.4506,72.449 339.3186,69.168 C339.3446,71.906 341.5216,74.165 344.3606,74.165 C347.2176,74.165 349.5026,71.88 349.5026,69.119 L349.5026,31.983 C349.5026,29.317 347.2176,27.032 344.5526,27.032 Z M328.1836,65.691 C321.2076,65.691 317.3666,58.645 317.3666,50.55 C317.3666,42.553 321.2076,35.506 328.1836,35.506 C335.0816,35.506 339.3136,42.124 339.3136,50.55 C339.3136,58.977 335.0816,65.691 328.1836,65.691 Z" id="type" fill="#363537"></path>
                <path d="M66.5976,64.8404 C62.7616,64.8404 59.6516,61.7304 59.6516,57.8944 C59.6516,54.0564 62.7616,50.9464 66.5976,50.9464 C70.4336,50.9464 73.5436,54.0564 73.5436,57.8944 C73.5436,61.7304 70.4336,64.8404 66.5976,64.8404 L66.5976,64.8404 Z M41.1256,37.0524 C33.1126,37.0524 25.6646,37.6084 19.3366,38.3344 L24.6976,21.1864 C24.9656,20.3254 25.7036,19.7004 26.5986,19.5814 C30.6076,19.0504 35.9026,18.5244 41.1246,18.5244 C46.3416,18.5244 51.6316,19.0504 55.6406,19.5804 C56.5416,19.7004 57.2816,20.3314 57.5466,21.1994 L62.7866,38.3194 C56.4866,37.6004 49.0836,37.0524 41.1256,37.0524 L41.1256,37.0524 Z M15.6536,64.8404 C11.8166,64.8404 8.7056,61.7304 8.7056,57.8944 C8.7056,54.0564 11.8166,50.9464 15.6536,50.9464 C19.4896,50.9464 22.5996,54.0564 22.5996,57.8944 C22.5996,61.7304 19.4896,64.8404 15.6536,64.8404 L15.6536,64.8404 Z M74.6166,40.0234 C74.0836,39.9294 73.5216,39.8334 72.9446,39.7384 L66.4016,18.4694 C65.0656,14.1304 61.3216,10.9854 56.8196,10.3914 C55.5576,10.2244 54.1666,10.0604 52.7026,9.9104 L52.7026,4.6314 L48.0716,4.6314 L48.0716,9.5124 C46.5606,9.4114 45.0106,9.3334 43.4406,9.2934 L43.4406,4.6314 L38.8086,4.6314 L38.8086,9.2934 C37.2396,9.3334 35.6896,9.4114 34.1776,9.5124 L34.1776,4.6314 L29.5466,4.6314 L29.5466,9.9104 C28.0836,10.0604 26.6926,10.2244 25.4296,10.3914 C20.9286,10.9854 17.1836,14.1304 15.8496,18.4694 L9.3056,39.7384 C8.7276,39.8334 8.1666,39.9294 7.6326,40.0234 C2.9656,40.8414 -0.3144,45.0754 0.0236,49.8024 L1.4216,69.3614 C1.6066,71.9484 3.8746,73.8814 6.4576,73.6434 C7.4426,73.5524 8.5686,73.4514 9.7946,73.3474 L10.0446,76.8524 L10.0446,76.8664 C10.3186,80.6934 13.6436,83.5734 17.4706,83.3004 C21.2966,83.0264 24.1766,79.7024 23.9036,75.8754 L23.6516,72.3504 C29.3086,72.0254 35.4106,71.7854 41.1256,71.7854 C46.8396,71.7854 52.9416,72.0254 58.5976,72.3504 L58.3456,75.8754 C58.0736,79.7024 60.9526,83.0264 64.7796,83.3004 C68.6076,83.5734 71.9306,80.6934 72.2046,76.8664 L72.2046,76.8524 L72.4556,73.3474 C73.6816,73.4514 74.8076,73.5524 75.7926,73.6434 C78.3756,73.8814 80.6436,71.9484 80.8286,69.3614 L82.2256,49.8024 C82.5636,45.0754 79.2846,40.8414 74.6166,40.0234 L74.6166,40.0234 Z M34.1776,4.6314 L38.8086,4.6314 L38.8086,0.0004 L34.1776,0.0004 L34.1776,4.6314 Z M43.4406,4.6314 L48.0716,4.6314 L48.0716,0.0004 L43.4406,0.0004 L43.4406,4.6314 Z" id="logo" fill="#F9AC1A"></path>
            </g>
        </g>
    </g>
</svg>